<?xml version="1.0" standalone="yes"?>
<svg xmlns="http://www.w3.org/2000/svg" width="382" height="372">
<path style="fill:#9a6757; stroke:none;" d="M0 0L0 146L8 147L8 149L0 149L0 200L13 195L11 192C21.4974 191.078 28.3748 189.121 32 202L45 196L44 192C54.2897 187.816 59.0558 197.001 70 198L70 199L66 201C61.3462 197.741 56.1114 199.564 51 201C58.2678 213.719 49.5965 213.836 39 213L39 215L43 215L43 216L41 218L45 217L58 223L57 231L52 232L46 239L48 245C57.1954 246.162 73.8377 248.247 82 244L89 247L84 257L87 258L100 254L100 253L96 253L96 252L98 252L98 251L91 250L91 249L94 249C94.4435 243.996 97.4957 241.549 94 237L100 234L103 235L102 232L100 234L96 234L99 232L99 231L96 228L101 229L102 225L99 224L99 223L105 221L105 220L100 220L102 214L107 215L107 214L103 214L103 213L110 209L110 208L107 208L107 207L124 197L122 195L122 194L131 191L130 188L139 185L137 183C139.443 182.405 146.76 179.236 141 178L141 177C148.875 176.352 155.716 172.878 161 167L123 140C122.753 153.793 115.229 166.757 101 170.231C93.0652 172.169 77.912 176.988 77 165L73 166C71.2507 160.873 69.3092 154.919 63 157C60.6687 150.887 42.6322 143.548 40 152L36 147L35 146C26.3193 144.902 25.0027 132.936 25 126C24.9976 119.803 22.881 110.852 24.5285 105.015C26.6638 97.4496 38.7296 86.0702 45 81.6482C50.2281 77.9612 61.1171 74.4971 63.3573 67.9568C66.5575 58.6132 56.6723 44.4286 57.8418 34C58.0724 31.944 56.3227 25.4371 59.2863 25.0363C63.2213 24.504 68.4817 30.6313 71 33.0394C77.4153 39.1736 83.1507 45.9333 87.0154 54C89.3182 58.8064 89.4511 65.8291 94 69L94 70L92 72C105.292 77.5617 134.465 83.1931 130 102L156.621 96.3974L165 90C162.223 106.067 150.18 116.403 135 120L135 121L140 124L137 128L134 122L134 121L126 122C126.743 131.772 145.986 141.391 154 146L153 143L158 144C164.597 138.517 173.084 151.1 178.435 138C180.891 131.989 177.997 120.928 173.679 116.224C171.942 114.332 162.366 111.995 163.613 108.764C165.048 105.045 172.586 107.73 175.393 104.682C179.69 100.016 178.374 96.2477 186 96L182 100C184.93 105.974 188.642 106.947 195 107L195 106L192 105L196 96C207.792 94.5097 215.56 97.6245 223 87L221 84L228 83L225.28 109.576L222.272 123.582L202 135L203 138L201 140L198 139L176 159L175 159L173 158L173 155L172 155L173 157L172 157L167 153L172 149L166 150L167 153L159 149C163.55 154.506 171.159 158.988 178 161L183 158C184.983 151.449 192.364 146.895 199 147C199.372 143.973 201.153 143.764 204 144C203.872 139.28 205.158 136.746 210 136L209 133C232.525 126.806 227.227 101.617 231.137 82.5756C236.192 57.9562 265.195 36.673 290 45.2091C296.959 47.6041 303.687 52.0037 309.001 57.0432C318.302 65.8647 320.933 74.9061 327.843 84.7145C334.762 94.5354 352.013 100.906 353 114L337 110L337 109L342 109L342 108L329 101L329 100L331 97L325 91L324 93L323 93L323 89L322 89L314 96L316 87L304 82L301 87L303 89L303 90L301 93L295 89L297 91C293.5 96.0901 298.019 98.9123 301 103L319 111L319 112L287 116L287 117L309 113.129L354 117C353.989 100.206 338.851 97.2671 330.533 84.9861C327.003 79.7746 331.258 77.6053 336 78C341.281 64.8424 330.926 68.4081 323 64C317.606 64.9436 309.578 53.35 305 50.4599C303.334 49.4084 299.144 47.7612 299.631 45.1736C300.237 41.9569 306.484 41.8183 308.758 40.4313C315.643 36.2307 312.69 23.656 304.019 24.3364C294.922 25.0502 299.704 38.4482 292.856 41.3966C284.044 45.1904 273.079 38.4561 264.086 42.4344C252.746 47.4511 244.803 55.9088 236.594 64.7099C233.628 67.8896 232.194 75.0401 227.87 76.5463C224.7 77.6508 221.133 74.6645 218 74.2384C210.432 73.2092 202.495 74.1929 195 73L195 72L202 71L202 70L200 69C201.848 66.5651 201.452 62.8406 203.603 60.7423C207.748 56.7005 224.161 56.5959 229 59L230 56L223 55C222.607 52.3483 220.926 49.9992 220.622 47.4398C219.135 34.9333 237.173 46.4498 240.035 46.5826C244.353 46.7828 259.416 40.0916 262 37L257 36C261.144 29.4018 256.48 26.6946 250 26C246.394 29.606 244.144 30.476 245 36L234 35L234 33L239 32C233.556 21.7589 218.231 22.4122 208 22L208 21L213 21C212.346 17.9461 210.993 18.0642 208 18L208 15L215 13L209 12L209 10L220 9L218 20C225.608 20.4216 232.529 17.543 228 9L236 10L236 14L246 15L245 8L240.687 0.603394L224 0L185 0L0 0z"/>
<path style="fill:#5d433d; stroke:none;" d="M242 0L245 7L245 8C242.952 10.8139 244.043 12.329 246 15L236 14L236 10L228 9C231.433 17.333 225.517 20.1526 218 20L220 9L209 10L209 12L215 13L208 15L208 18L213 21L208 21L208 22C219.194 22.8774 231.516 22.415 239 32L234 33L234 35L245 36L250 26C255.938 27.6664 259.859 29.3132 257 36L262 37C258.759 39.6743 244.223 46.5271 240.035 46.2238C237.021 46.0053 217.799 34.5238 220.363 48.0139C220.816 50.3966 222.368 52.6233 223 55L230 56L229 59C223.299 54.9813 193.683 58.1884 202 70L202 71L195 72L195 73C202.239 74.8297 210.551 73.2411 218 74.4792C221.238 75.0173 224.481 78.1104 227.87 77.125C232.087 75.899 233.437 69.3763 235.91 66.2593C242.295 58.2144 249.903 51.0212 258.83 45.7631C270.374 38.9644 282.874 46.5532 293.697 41.3966C299.502 38.6305 297.115 18.0983 308.867 26.152C310.26 27.1068 311.469 28.4138 311.978 30.054C315.603 41.7411 300.011 38.7396 298.921 45.1736C298.477 47.7966 302.286 49.367 304.005 50.4599C307.889 52.9297 318.798 66.3606 323 64C330.852 69.4994 339.295 64.3067 336 78C330.072 76.5575 326.535 80.4781 330.515 85.9606C338.729 97.2762 353.955 101.146 354 117C333.77 113.244 311.013 110.734 291 116.255C283.739 118.258 274.876 117.929 271.624 126C268.284 134.291 274.974 138.023 277.898 144.961C280.3 150.659 280.452 159.7 281.537 166C284.645 184.043 278.328 199.838 275 217L290.957 223.738L302 232C300.035 234.301 297.398 242.797 294.697 243.408C286.257 245.318 280.104 224.75 269.213 230.358C262.591 233.768 255.432 249.015 250.756 255.285C242.069 266.935 228.293 278.903 216.285 287.035C210.461 290.98 195.876 295.368 194.509 303.005C190.896 323.187 225.466 317 237 317C285.533 317 333.521 316 382 316L382 0L376 0L377 9L371 11C365.835 7.56421 360.854 7.75592 362 0L346 0L327 17L329 19C324.948 20.1046 317.581 21.6295 317.138 15.267C316.927 12.2265 319.44 10.4174 317 8L317 4L320 6L321 6L336 1L336 0L285 0C288.855 9.93179 277.865 3.59299 274 3L274 2L280 2L269 0L242 0z"/>
<path style="fill:#9a6757; stroke:none;" d="M280 2L274 2L274 3L277 3C277.466 6.36725 285.596 7.74835 286.306 3.80554C287.02 -0.169403 281.664 -0.263245 280 2M321 6L320 6L317 4L317 8C320.166 15.1839 315.763 23.9207 329 19L327 17C332.761 10.0213 344.448 10.0503 346 0C338.705 0.000793457 326.485 0.947968 321 6M371 11L377 9C377.759 1.58414 369.608 -4.73212 362.618 1.02777C360.071 3.12631 362.04 7.1073 364.275 8.52237C366.242 9.76807 368.855 10.0966 371 11M314 3L314 4L317 4L314 3z"/>
<path style="fill:#d1a769; stroke:none;" d="M87.6667 4.33334L88.3333 4.66666L87.6667 4.33334z"/>
<path style="fill:#9a6757; stroke:none;" d="M296 7L298 10L294 15C301.64 17.7064 302.203 13.4308 305 7L296 7z"/>
<path style="fill:#d1a769; stroke:none;" d="M90 7L91 8L90 7z"/>
<path style="fill:#5d433d; stroke:none;" d="M207 9L208 10L207 9z"/>
<path style="fill:#9a6757; stroke:none;" d="M255 19L275 19L274 13C266.415 13 259.98 12.4045 255 19M231 18L232 19L231 18M246 18L247 19L246 18M344 20L344 21L356 21L356 19L344 20z"/>
<path style="fill:#d1a769; stroke:none;" d="M57 24L57 25L67 30L57 24z"/>
<path style="fill:#dac5a8; stroke:none;" d="M57 25L61 53L62 53L60 41L64 43L64 32L70 33C66.5349 28.7166 62.5708 25.6198 57 25z"/>
<path style="fill:#d1a769; stroke:none;" d="M56.3333 26.6667L56.6667 27.3333L56.3333 26.6667z"/>
<path style="fill:#9a6757; stroke:none;" d="M350 26L351 27L350 26M354.667 26.3333L355.333 26.6667L354.667 26.3333z"/>
<path style="fill:#69a07c; stroke:none;" d="M59.6667 27.3333L60.3333 27.6667L59.6667 27.3333z"/>
<path style="fill:#9a6757; stroke:none;" d="M326 27C324.395 31.8212 325.037 34.2509 330 36L335 33L334 30L331 31L330 27L326 27z"/>
<path style="fill:#d1a769; stroke:none;" d="M57 28L58 29L57 28M58 29L59 30L58 29z"/>
<path style="fill:#69a07c; stroke:none;" d="M67 29L68 30L67 29z"/>
<path style="fill:#d1a769; stroke:none;" d="M68 30L69 31L68 30M58 31L59 32L58 31z"/>
<path style="fill:#69a07c; stroke:none;" d="M69 31L70 32L69 31M64 32L64 44L61 42L62 60L70 34L71 34C74.5495 47.4218 58.951 70.2588 80 74.5779C83.2365 75.2421 84.9639 75.3056 88 74L88 73L84 73L84 72L89 70L88 66L80 70C83.5982 63.3593 83.3784 53.7687 80 47L84 48L80 45L71 32L64 32z"/>
<path style="fill:#9a6757; stroke:none;" d="M274 32L275 33L274 32z"/>
<path style="fill:#d1a769; stroke:none;" d="M71 33L72 34L71 33M63 34L65 42L63 34z"/>
<path style="fill:#dac5a8; stroke:none;" d="M70 34L63 61L66 66L64 65C62.4639 74.8657 48.6837 78.049 42.0008 84.1049C37.0388 88.6014 28.0115 96.7666 25.6034 103.039C23.8233 107.676 25.6084 113.266 25.9097 118C26.521 127.602 24.9569 135.128 30 144L31 144L31 140L32 140L37 147L38 147L46 140L44 142L43 142L43.4707 128L42 115L49 111L50 111L51 115L52 115C54.5773 110.665 60.7979 104.098 66 108L71 102L73 103C77.6127 96.0418 81.6383 88.8371 90 86L90 87C85.3112 89.5872 85.092 96.983 84 102C91.4378 99.0198 92.1161 84.979 101.031 82.2068C107.33 80.2481 104.38 92.9805 99 95L100 99L103 98L101 111L104 111L105 117L105 118L104 133L106 142L104 140L102 145L105 148L102 146L101 146L99 152L99 153L104 150L101 155L102 157C98.3068 158.98 96.3869 160.706 97 165L101 164L100 170C107.727 167.519 115.061 162.978 118 155L120 156L122 139L133 147L138 146C138.379 156.542 157.386 162.295 164 169C160.494 169.958 158.596 171.382 158 175L146 178L146 179L152 179L152 180L143 183L143 184L146 184L146 185L131 191L131 192L136 192L136 193L127 196L127 197L130 197L130 198L120 201L120 202L125 201L113 207L113 208L117 208L117 209L110 210L110 211L116 210L111 213L111 214L114 214L114 215L108 215L103 218L103 219L110 218L108 225L107 225L107 222L102 222L102 223L110 226C108.61 228.316 106.872 228.374 110 229L110 230L104 230L104 231L109 234L100 237L99 239L99 240L102 241L100 244L106 241L105 245L111 246L95 249L95 250C106.578 254.95 111.163 260.74 104 272L104 273L105 276L116 295L147 300L147 299C138.58 296.784 131.547 287.687 135.167 279C136.233 276.44 141.347 270.936 142 276L143 276L146 270L142 273L146 268L151 260L150 257L159 247L157 251L157 252L160 253C158.414 255.336 157.803 257.008 160 259L160 260L160 261C157.966 262.769 157.966 264.231 160 266C157.57 272.03 159.297 278.475 165 282L164 284C168.108 285.942 173.223 287.171 175 282L172 284L171 276L175 275L178 278L178 274L174 274L177 268L180 270L180 253L183 254L184 242L185 242L185 244L186 244L187 234L184 235C182.976 231.927 181.945 229.236 185 230L185 229L180 223L185 223C185 217.497 200.311 220.835 204 222L208 209L211 211C212.362 205.885 217.678 204.954 218.947 200.762C221.268 193.098 209.749 185.218 206 180L223 181L233 187L232 191L232 192C236.464 194.013 240.303 198.031 241 203L247 200L248 200L245 207L246 207L247 205L247 207L248 207L248 205L249 205L252 210L250 217L247 215L244 233L241 231L240 243L243 244L241 251L240 251L241 244C235.69 247.911 234.259 250.512 234 257L233 257L233 254C222.535 255.31 226.038 261.778 221.867 268.961C218.272 275.15 212.815 280.342 210 287C219.634 285.717 236.736 271.064 240 262C247.08 260.961 252.441 251.105 255 245L257 246C260.006 240.962 264.984 227.863 271 227C275.989 205.926 282.491 187.109 279.444 165C278.479 157.991 276.321 148.414 273.397 142C270.98 136.697 266.885 133.228 269.134 127C273.713 114.322 287.158 120.583 294 112C285.618 114.065 274.509 112.972 267.549 118.92C262.283 123.42 257.938 134.79 255 141C251.552 140.067 246.293 141.707 243.333 139.894C237.362 136.235 246.859 122.197 246 117C249.495 116.247 248.664 114.655 247 112L251 111C249.799 107.472 243.228 94.9921 250 94L252 91C250.739 72.0854 267.279 46.1523 287 46L287 45C269.949 41.6011 236.972 52.7448 237 74C231.536 77.7283 231.584 85.9738 231.13 92C230.155 104.972 228.271 118.388 225 131L221 128L224 131L220 133L219 133C217.358 136.362 215.872 135.998 213 134L214 138L214 139L211 141L211 138L208 138L206 140L205 143L206 146L202 146L201 151L197 149L197 153L195 150L191 150L188 153L189 157L185 155L187 159L186 160C182.696 159.31 180.912 159.079 179 162L163 158L158 152L155 152L155 155L146 150C145.914 147.672 144.163 144.698 142 147L141 147L133 135L126 136L122 119C119.269 114.027 123.592 112.203 126 108L129 109L131 103C128.241 98.5858 131.354 92.7196 127.667 88C122.616 81.5348 109.067 80.8465 102 78C98.1579 76.4525 95.1165 73.4333 91 73C90.6108 63.9593 88.4072 51.9436 80 47C82.8674 54.7289 82.8537 62.2939 80 70L88 66L89 70L84 72L84 73L88 73L88 74C85.1054 74.7668 82.9639 74.7712 80 74.3272C56.857 70.8598 78.4752 44.6578 70 34z"/>
<path style="fill:#5d433d; stroke:none;" d="M212 34L212 35L216 35L212 34z"/>
<path style="fill:#d1a769; stroke:none;" d="M57 35L57 40L58 40L57 35z"/>
<path style="fill:#9a6757; stroke:none;" d="M272 37L273 38L272 37M275 37L276 38L275 37z"/>
<path style="fill:#5d433d; stroke:none;" d="M257.667 38.3333L258.333 38.6667L257.667 38.3333z"/>
<path style="fill:#9a6757; stroke:none;" d="M324 43L333 44L338 46L339 41C333.042 38.7055 327.799 36.4928 324 43z"/>
<path style="fill:#d1a769; stroke:none;" d="M60 41L60 44L61 44L62 41L60 41z"/>
<path style="fill:#9a6757; stroke:none;" d="M375 41L376 42L375 41z"/>
<path style="fill:#d1a769; stroke:none;" d="M58 42L59 43L58 42M62 42L63 43L62 42M63 43L64 44L63 43M80.3333 43.6667L80.6667 44.3333L80.3333 43.6667M264 45L264 46L285 44L264 45z"/>
<path style="fill:#9a6757; stroke:none;" d="M361 45C364.95 47.2504 369.323 46.7543 372 43L365 43L361 45z"/>
<path style="fill:#d1a769; stroke:none;" d="M59 44L59 51L60 51L59 44M61.3333 44.6667L61.6667 45.3333L61.3333 44.6667z"/>
<path style="fill:#5d433d; stroke:none;" d="M191 49L204 48C200.138 43.4092 194.345 43.9373 191 49z"/>
<path style="fill:#d1a769; stroke:none;" d="M285 44L285 45L287 45L287 46C267.945 46.0399 248.469 71.6337 252 91L250 94C243.041 94.8745 249.07 107.444 251 111L247 112L246 117C246.059 122.148 237.515 135.882 242.603 139.961C245.306 142.128 251.656 140.445 255 141L268.299 118.92L294 112L319 112L319 111L301 103L295 89L301 93L303 90L303 89L301 87L304 82L316 87L314 96C318.295 94.8748 320.739 93.3604 322 89L323 89L323 93L324 93L325 91L331 97L329 100L329 101L342 108L342 109L337 109L337 110L353 114C352.611 102.005 337.904 94.1642 330.133 86.4244C325.37 81.6801 324.654 74.5585 321.034 69C313.473 57.3901 298.997 45.8941 285 44z"/>
<path style="fill:#9a6757; stroke:none;" d="M355 44L355 45L358 45L355 44M359 44L360 45L359 44z"/>
<path style="fill:#d1a769; stroke:none;" d="M71 45L72 46L71 45M66 46L67 47L66 46M69 46L70 47L69 46M259 47L259 48L264 47L259 47M82 47L85 51L82 47M62 48L62 53L61 53L61 51L60 51L62 57L62 48M253 52L259 49L253 52M64 49L64 52L65 52L64 49M79 49L80 50L79 49M69 50L70 51L69 50M85 51L87 54L85 51z"/>
<path style="fill:#69a07c; stroke:none;" d="M86 52L87 53L86 52z"/>
<path style="fill:#d1a769; stroke:none;" d="M252 52L253 53L252 52M250.667 53.3333L251.333 53.6667L250.667 53.3333z"/>
<path style="fill:#dac5a8; stroke:none;" d="M301 53L306 57L301 53z"/>
<path style="fill:#d1a769; stroke:none;" d="M87.3333 54.6667L87.6667 55.3333L87.3333 54.6667M249 54L250 55L249 54M248 55L249 56L248 55M247 56L248 57L247 56z"/>
<path style="fill:#9a6757; stroke:none;" d="M342 58L351 59L351 56L342 58M358 56L359 57L358 56z"/>
<path style="fill:#d1a769; stroke:none;" d="M62 57L63 58L62 57M88.3333 57.6667L88.6667 58.3333L88.3333 57.6667M246 57L247 58L246 57M64 58L65 59L64 58M245 58L246 59L245 58z"/>
<path style="fill:#9a6757; stroke:none;" d="M282.333 58.6667L282.667 59.3333L282.333 58.6667M287.667 58.3333L288.333 58.6667L287.667 58.3333M292 58L293 59L292 58z"/>
<path style="fill:#d1a769; stroke:none;" d="M63 59L64 60L63 59M243 59L243 61L245 59L243 59M68 60L69 61L68 60M63 61L64 65L65 65L63 61M89.3333 61.6667L89.6667 62.3333L89.3333 61.6667M242.333 61.6667L242.667 62.3333L242.333 61.6667z"/>
<path style="fill:#69a07c; stroke:none;" d="M64 62L65 66L66 66L64 62z"/>
<path style="fill:#d1a769; stroke:none;" d="M65 62L66 63L65 62z"/>
<path style="fill:#9a6757; stroke:none;" d="M295 62L292 65L292 66L292 67C298.598 64.2886 307.552 62.307 304 73L298 70L298 71L300 71L300 72L296 71L296 72L300 74L300 79L301 79L301 75L312 76L310 65L307 66C304.341 61.448 299.801 62.0032 295 62z"/>
<path style="fill:#d1a769; stroke:none;" d="M90 63C90.0635 66.7809 89.768 72.0931 94 73L94 72L94 70L94 69L90 63z"/>
<path style="fill:#9a6757; stroke:none;" d="M231.333 63.6667L231.667 64.3333L231.333 63.6667z"/>
<path style="fill:#d1a769; stroke:none;" d="M241 63L242 64L241 63z"/>
<path style="fill:#dac5a8; stroke:none;" d="M293 63L293 65L295 63L293 63z"/>
<path style="fill:#d1a769; stroke:none;" d="M295 63L296 64L295 63z"/>
<path style="fill:#5d433d; stroke:none;" d="M300 72L300 71L298 71L298 70L304 73C311.978 56.0169 283.205 68.568 300 72z"/>
<path style="fill:#d1a769; stroke:none;" d="M240 64L241 65L240 64M294 64L295 65L294 64z"/>
<path style="fill:#dac5a8; stroke:none;" d="M314 64C315.001 69.6147 318.57 79.7066 325 80L314 64z"/>
<path style="fill:#d1a769; stroke:none;" d="M239 65L232 81L233 81L237 74L239 65M293 65L294 66L293 65z"/>
<path style="fill:#5d433d; stroke:none;" d="M323 66L324 67L323 66M74 67L73 68L79 73L76 67L74 67z"/>
<path style="fill:#69a07c; stroke:none;" d="M237 67L238 68L237 67z"/>
<path style="fill:#d1a769; stroke:none;" d="M63 69L64 70L63 69z"/>
<path style="fill:#9a6757; stroke:none;" d="M293 69L294 70L293 69z"/>
<path style="fill:#d1a769; stroke:none;" d="M62 70L63 71L62 70M99 70L99 71L103 71L99 70z"/>
<path style="fill:#9a6757; stroke:none;" d="M294 70L295 71L294 70z"/>
<path style="fill:#d1a769; stroke:none;" d="M61 71L62 72L61 71M59 72L60 73L59 72M57 73L58 74L57 73M94 73C97.7355 77.1552 102.492 78.7447 108 79L108 78L94 73z"/>
<path style="fill:#69a07c; stroke:none;" d="M95 73L96 74L95 73z"/>
<path style="fill:#d1a769; stroke:none;" d="M56 74L57 75L56 74z"/>
<path style="fill:#9a6757; stroke:none;" d="M347 77L350 82L360 81L366 82L362 79L362 78L365 76L361 74L347 77z"/>
<path style="fill:#d1a769; stroke:none;" d="M54 75L55 76L54 75z"/>
<path style="fill:#5d433d; stroke:none;" d="M48 76L49 78L50 78L51 76L48 76z"/>
<path style="fill:#d1a769; stroke:none;" d="M53 76L54 77L53 76z"/>
<path style="fill:#69a07c; stroke:none;" d="M81 80L82 83L79 82L79 87C84.1887 85.2395 91.3888 80.8708 94 76L81 80z"/>
<path style="fill:#dac5a8; stroke:none;" d="M255 76L256 77L255 76z"/>
<path style="fill:#9a6757; stroke:none;" d="M313 76L313 78L315 78L315 76L313 76M343 76L344 77L343 76z"/>
<path style="fill:#5d433d; stroke:none;" d="M46 77L47 78L46 77z"/>
<path style="fill:#d1a769; stroke:none;" d="M52 77L53 78L52 77z"/>
<path style="fill:#9a6757; stroke:none;" d="M338 77L339 78L338 77z"/>
<path style="fill:#69a07c; stroke:none;" d="M63 80L61 85L61 86L71 79L63 80z"/>
<path style="fill:#d1a769; stroke:none;" d="M48 79L49 80L48 79z"/>
<path style="fill:#69a07c; stroke:none;" d="M75 79C67.0199 84.4504 59.3651 91.237 55 100C62.9365 97.0891 73.4375 87.6564 75 79z"/>
<path style="fill:#d1a769; stroke:none;" d="M109 79L110 80L109 79M46 80L47 81L46 80z"/>
<path style="fill:#dac5a8; stroke:none;" d="M82 80L83 81L82 80z"/>
<path style="fill:#69a07c; stroke:none;" d="M84 102L90 87L90 86C81.5595 87.7021 76.3954 95.6208 73 103L71 102L66 108C59.915 104.753 53.7046 110.13 52 116L51 116L51 112C40.2733 115.094 45.2682 121.515 43 129L45 134L49 133L47 122L55 118L46 140L52 142L48 142L43 148C49.8606 149.517 59.1906 150.459 63 157C69.1248 155.598 70.7439 161.266 73 166L77 165L78 172C87.1703 166.541 94.4315 166.561 99 156L103 155L103 154L98 153L99 149L103 146L102 148L103 148L104 148L105 148L104 144L101 145L101 144L104 140L106 142L104 133L105 118L105 117L104 111L101 111L103 98L100 99L99 95C104.481 93.8288 108.467 81.2068 101.891 81.2068C92.9308 81.2068 90.1009 98.2698 84 102z"/>
<path style="fill:#d1a769; stroke:none;" d="M111 80L112 81L111 80z"/>
<path style="fill:#dac5a8; stroke:none;" d="M301 80L300 84L297 83L302 86L303 80L301 80z"/>
<path style="fill:#d1a769; stroke:none;" d="M44 81L45 82L44 81z"/>
<path style="fill:#69a07c; stroke:none;" d="M48 89L62 82C56.758 80.8082 50.5388 84.4933 48 89z"/>
<path style="fill:#d1a769; stroke:none;" d="M113.667 81.3333L114.333 81.6667L113.667 81.3333M231 81L231 86L232 86L231 81z"/>
<path style="fill:#9a6757; stroke:none;" d="M316 81L317 82L316 81M381 81L382 82L381 81z"/>
<path style="fill:#d1a769; stroke:none;" d="M43 82L44 83L43 82z"/>
<path style="fill:#69a07c; stroke:none;" d="M107 82L115 113C120.201 107.926 118.518 100.56 118 94L122 90L127 92L107 82z"/>
<path style="fill:#d1a769; stroke:none;" d="M115.667 82.3333L116.333 82.6667L115.667 82.3333M42 83L43 84L42 83z"/>
<path style="fill:#5d433d; stroke:none;" d="M102 83L101 86L102 83z"/>
<path style="fill:#d1a769; stroke:none;" d="M118.667 83.3333L119.333 83.6667L118.667 83.3333z"/>
<path style="fill:#5d433d; stroke:none;" d="M221 84L223 87C213.623 96.4917 208.572 93.6661 196 96L192 105L195 106L195 107C188.675 106.865 185.64 105.172 182 100L186 96C178.115 96.0932 179.633 99.1175 175.339 104.021C172.598 107.15 163.828 104.993 163.176 109.096C162.62 112.595 169.898 113.761 171.938 115.43C176.782 119.395 180.765 130.964 178.421 137C173.154 150.568 162.913 137.171 158 144L153 143C156.04 148.067 161.442 151.24 167 153L166 150L172 149L167 153L173 157L172 155L173 155L173 158L176 159L198 139L201 140L203 138L202 135L222.272 124.301L225.249 112L228 83L221 84z"/>
<path style="fill:#d1a769; stroke:none;" d="M41 84L42 85L41 84M121 84L122 85L121 84z"/>
<path style="fill:#5d433d; stroke:none;" d="M184 84L188 86L188 85L184 84z"/>
<path style="fill:#d1a769; stroke:none;" d="M40 85L41 86L40 85M124 85L125 86L124 85M39 86L40 87L39 86M230 86L231 90L232 90L230 86M38 87L39 88L38 87M47 87L44 92L49 90L47 87M52 87L53 88L52 87z"/>
<path style="fill:#69a07c; stroke:none;" d="M43 101C50.7098 99.0513 57.0414 93.8295 61 87C53.5142 88.6327 46.5828 94.2362 43 101z"/>
<path style="fill:#5d433d; stroke:none;" d="M109 87L110 91L111 91L109 87z"/>
<path style="fill:#d1a769; stroke:none;" d="M127 87L128 88L127 87z"/>
<path style="fill:#9a6757; stroke:none;" d="M290.667 87.3333L291.333 87.6667L290.667 87.3333z"/>
<path style="fill:#d1a769; stroke:none;" d="M37 88L38 89L37 88M303 88L304 89L303 88M36 89L37 90L36 89M128 89L129 90L128 89M35 90L36 91L35 90z"/>
<path style="fill:#5d433d; stroke:none;" d="M102 90L103 91L102 90z"/>
<path style="fill:#d1a769; stroke:none;" d="M129.333 90.6667L129.667 91.3333L129.333 90.6667M161.667 90.3333L162.333 90.6667L161.667 90.3333z"/>
<path style="fill:#dac5a8; stroke:none;" d="M132 102L132 103L139 106L140 103L142 105L155 100L137 118L137 119C152.516 115.323 159.56 105.459 165 91L164 90L154.96 97.3974L132 102z"/>
<path style="fill:#d1a769; stroke:none;" d="M164 90L165 91L164 90M230 90L230 99L231 99L230 90z"/>
<path style="fill:#dac5a8; stroke:none;" d="M88 116L89 116L99 91C92.4824 94.2848 88.7076 108.939 88 116z"/>
<path style="fill:#d1a769; stroke:none;" d="M34 92L35 93L34 92z"/>
<path style="fill:#69a07c; stroke:none;" d="M130 92L131 93L130 92z"/>
<path style="fill:#d1a769; stroke:none;" d="M160 92L161 93L160 92M164.333 92.6667L164.667 93.3333L164.333 92.6667z"/>
<path style="fill:#9a6757; stroke:none;" d="M293 92L294 93L293 92M331 92L334 95L331 92z"/>
<path style="fill:#d1a769; stroke:none;" d="M33 93L34 94L33 93M130 93L130 101L131 101L130 93M159 93L160 94L159 93M297 93L298 94L297 93M32 94L33 95L32 94M163.333 94.6667L163.667 95.3333L163.333 94.6667M31.3333 95.6667L31.6667 96.3333L31.3333 95.6667M158 95L159 96L158 95M308 96L308 102L309 102L308 96M30 97L31 98L30 97M149 97L149 98L157 98L149 97M29 98L30 99L29 98M145 98L145 99L148 99L145 98M162 98L163 99L162 98z"/>
<path style="fill:#5d433d; stroke:none;" d="M310 99C311.116 102.74 319.185 113.468 321 105L333 109L333 108L315 98L310 99z"/>
<path style="fill:#d1a769; stroke:none;" d="M43 99L44 100L43 99z"/>
<path style="fill:#dac5a8; stroke:none;" d="M78 99L77 101L78 99z"/>
<path style="fill:#d1a769; stroke:none;" d="M140.667 99.3333L141.333 99.6667L140.667 99.3333M161 99L162 100L161 99M229 99L229 103L230 103L229 99z"/>
<path style="fill:#9a6757; stroke:none;" d="M292 99L292 102L288 102C288.928 107.668 291.652 108.433 297 109L292 105L292 99z"/>
<path style="fill:#d1a769; stroke:none;" d="M26 100L27 101L26 100M45 100L46 101L45 100M135.667 100.333L136.333 100.667L135.667 100.333z"/>
<path style="fill:#69a07c; stroke:none;" d="M140 103L139 106C134.402 102.762 127.669 101.024 129 109C119.769 110.863 120.148 116.431 122 124C126.14 121.697 130.803 122.377 134.996 120.246C142.779 116.29 150.06 107.018 155 100L140 103z"/>
<path style="fill:#d1a769; stroke:none;" d="M160 100L161 101L160 100M42 101L40 106L41 106L42 101M129 101L130 102L129 101M132 101L133 102L132 101M159.333 101.667L159.667 102.333L159.333 101.667M24 103L24 111L25 111L24 103M158.333 103.667L158.667 104.333L158.333 103.667M228 103C226.788 118.358 224.283 127.118 209 133L210 136C204.705 135.684 203.284 139.183 204 144C200.917 143.725 199.367 143.827 199 147C189.458 146.408 187.09 153.822 180 158L180 159L186 160L187 159L185 155L189 157L188 153L191 150L195 150L197 153L197 149L201 151L202 146L206 146L205 143L206 140L208 138L211 138L211 141L214 139L214 138L213 134C215.712 136.413 217.901 136.878 219 133L220 133C222.04 134.805 222.898 133.077 224 131L221 128L225 131C227.624 123.313 231.279 110.815 228 103z"/>
<path style="fill:#9a6757; stroke:none;" d="M285.667 103.333L286.333 103.667L285.667 103.333z"/>
<path style="fill:#69a07c; stroke:none;" d="M40 104L41 105L40 104z"/>
<path style="fill:#9a6757; stroke:none;" d="M294 104L295 105L294 104z"/>
<path style="fill:#69a07c; stroke:none;" d="M39 105L38 108L39 105M65 105L66 106L65 105z"/>
<path style="fill:#d1a769; stroke:none;" d="M157.333 105.667L157.667 106.333L157.333 105.667z"/>
<path style="fill:#9a6757; stroke:none;" d="M273 105L271 110C274.192 111.471 275.811 111.942 278 109L274 109L273 105z"/>
<path style="fill:#d1a769; stroke:none;" d="M38 106L39 107L38 106z"/>
<path style="fill:#dac5a8; stroke:none;" d="M131.333 106.667L131.667 107.333L131.333 106.667M133 106L134 107L133 106z"/>
<path style="fill:#d1a769; stroke:none;" d="M39 107L40 108L39 107M127 107L128 108L127 107z"/>
<path style="fill:#dac5a8; stroke:none;" d="M138.667 107.333L139.333 107.667L138.667 107.333z"/>
<path style="fill:#d1a769; stroke:none;" d="M37.6667 108.333L38.3333 108.667L37.6667 108.333M126 108L127 109L126 108z"/>
<path style="fill:#dac5a8; stroke:none;" d="M132 111L133 111L135 110L135 109L132 111M136 108L137 109L136 108z"/>
<path style="fill:#d1a769; stroke:none;" d="M335.667 108.333L336.333 108.667L335.667 108.333z"/>
<path style="fill:#dac5a8; stroke:none;" d="M64 110L64 125L68 109L64 110z"/>
<path style="fill:#d1a769; stroke:none;" d="M155 109L156 110L155 109M27.3333 110.667L27.6667 111.333L27.3333 110.667M37 110L38 111L37 110z"/>
<path style="fill:#69a07c; stroke:none;" d="M38 110L37 113L38 110z"/>
<path style="fill:#d1a769; stroke:none;" d="M39 110L39 113L41 112L41 111L39 110M247 110L246 112L247 110M49 111L50 112L49 111M154 111L155 112L154 111z"/>
<path style="fill:#dac5a8; stroke:none;" d="M300 111L300 112L304 112L300 111z"/>
<path style="fill:#d1a769; stroke:none;" d="M29 112L30 113L29 112z"/>
<path style="fill:#5d433d; stroke:none;" d="M141 112L139 115L141 112z"/>
<path style="fill:#d1a769; stroke:none;" d="M153 112L154 113L153 112M37 113L38 114L37 113M147 113L148 114L147 113M151 113L152 114L151 113M25 114L25 126L26 126L25 114M27 114L28 115L27 114M44 114L44 115L47 115L44 114M149.667 114.333L150.333 114.667L149.667 114.333M288 115L288 116L294 115L288 115M29 117L32 116L29 117M36 115L36 116L38 118L33 116L35 122L41 116L36 115M42 115L42 120L43 120L42 115M51 115L52 116L51 115z"/>
<path style="fill:#5d433d; stroke:none;" d="M120 115L120 116C126.016 118.539 131.984 118.539 138 116L120 115z"/>
<path style="fill:#d1a769; stroke:none;" d="M147.667 115.333L148.333 115.667L147.667 115.333z"/>
<path style="fill:#69a07c; stroke:none;" d="M36 116L36 118L38 118L38 116L36 116z"/>
<path style="fill:#d1a769; stroke:none;" d="M144.667 116.333L145.333 116.667L144.667 116.333z"/>
<path style="fill:#9a6757; stroke:none;" d="M182 119L187 123L185 125C196.244 133.072 197.473 110.343 182 119z"/>
<path style="fill:#d1a769; stroke:none;" d="M285.667 116.333L286.333 116.667L285.667 116.333M44 117L45 118L44 117z"/>
<path style="fill:#dac5a8; stroke:none;" d="M48.6667 117.333L49.3333 117.667L48.6667 117.333M51 117L47 122C48.6239 126.788 50.6277 132.824 44 134L47 139C48.5195 133.95 54.2327 130.459 51 125L55 118L51 117z"/>
<path style="fill:#d1a769; stroke:none;" d="M142 117L143 118L142 117M279 117L279 118L282 118L279 117z"/>
<path style="fill:#9a6757; stroke:none;" d="M282 117L282 118L286 118L282 117z"/>
<path style="fill:#d1a769; stroke:none;" d="M139.667 118.333L140.333 118.667L139.667 118.333M278 160L279 160L276 149C279.778 145.048 273.211 139.345 271.217 135.83C267.59 129.438 271.114 122.348 277 119C271.65 118.265 268.605 125.422 268.204 130C267.745 135.235 271.37 138.546 273.387 142.985C275.731 148.146 276.347 154.521 278 160z"/>
<path style="fill:#9a6757; stroke:none;" d="M277 118L277 119L282 119L277 118z"/>
<path style="fill:#d1a769; stroke:none;" d="M49 119L50 120L49 119M136.667 119.333L137.333 119.667L136.667 119.333z"/>
<path style="fill:#9a6757; stroke:none;" d="M275.667 119.333L276.333 119.667L275.667 119.333z"/>
<path style="fill:#d1a769; stroke:none;" d="M41 120L42 121L41 120M120.333 120.667L120.667 121.333L120.333 120.667z"/>
<path style="fill:#9a6757; stroke:none;" d="M273 120L269 133L270 133L275 120L273 120z"/>
<path style="fill:#5d433d; stroke:none;" d="M132 122L137 128L136 125L140 124C137.904 120.777 135.549 121.193 132 122z"/>
<path style="fill:#9a6757; stroke:none;" d="M256 121L257 122L256 121z"/>
<path style="fill:#5d433d; stroke:none;" d="M2 122L1 124L3 124L2 122z"/>
<path style="fill:#d1a769; stroke:none;" d="M121.333 122.667L121.667 123.333L121.333 122.667M123 122L122 125L126 127L126 122L123 122z"/>
<path style="fill:#dac5a8; stroke:none;" d="M124 122L125 123L124 122z"/>
<path style="fill:#d1a769; stroke:none;" d="M42.3333 123.667L42.6667 124.333L42.3333 123.667z"/>
<path style="fill:#5d433d; stroke:none;" d="M131 123L132 124L131 123M153 123L154 124L153 123z"/>
<path style="fill:#dac5a8; stroke:none;" d="M45 124L46 125L45 124M124 124L125 125L124 124z"/>
<path style="fill:#d1a769; stroke:none;" d="M29 125L31 127L31 125L29 125M51 125L52 126L51 125M48 126L49 127L48 126M44.3333 127.667L44.6667 128.333L44.3333 127.667M49.3333 127.667L49.6667 128.333L49.3333 127.667M126 127L126 136L133 135L141 147L142 147L143 145L146 150L155 155L155 152L158 152L163 158L172 159L172 158L126 127z"/>
<path style="fill:#5d433d; stroke:none;" d="M142 130C141.513 139.509 152.687 138.069 154 130L142 130z"/>
<path style="fill:#d1a769; stroke:none;" d="M25 129L25 136L26 136L25 129M43 130C41.0675 134.953 39.7161 137.359 43 142L44 142L43 130z"/>
<path style="fill:#69a07c; stroke:none;" d="M118 130L118 136L119 136L118 130z"/>
<path style="fill:#dac5a8; stroke:none;" d="M217 131L217 133L219 131L217 131z"/>
<path style="fill:#d1a769; stroke:none;" d="M51 132L52 133L51 132z"/>
<path style="fill:#dac5a8; stroke:none;" d="M102 132L103 133L102 132z"/>
<path style="fill:#9a6757; stroke:none;" d="M128 132L129 133L128 132z"/>
<path style="fill:#d1a769; stroke:none;" d="M46 133L45 135L47 135L46 133z"/>
<path style="fill:#9a6757; stroke:none;" d="M270.333 133.667L270.667 134.333L270.333 133.667z"/>
<path style="fill:#69a07c; stroke:none;" d="M42.3333 134.667L42.6667 135.333L42.3333 134.667z"/>
<path style="fill:#d1a769; stroke:none;" d="M49 134L50 135L49 134M47 135L47 137L49 135L47 135z"/>
<path style="fill:#dac5a8; stroke:none;" d="M102 135L103 138L104 138L102 135z"/>
<path style="fill:#9a6757; stroke:none;" d="M271 135L273 138L271 135z"/>
<path style="fill:#d1a769; stroke:none;" d="M26.3333 136.667L26.6667 137.333L26.3333 136.667M132 137L133 138L132 137M47 138L48 139L47 138z"/>
<path style="fill:#9a6757; stroke:none;" d="M273 138L274 139L273 138z"/>
<path style="fill:#d1a769; stroke:none;" d="M27 139L28 140L27 139z"/>
<path style="fill:#69a07c; stroke:none;" d="M42 139L43 140L42 139z"/>
<path style="fill:#dac5a8; stroke:none;" d="M95 139L93 148L95 149L99 148L99 147L96 148L97 139L95 139z"/>
<path style="fill:#d1a769; stroke:none;" d="M122 139L122 147L123 147L122 139z"/>
<path style="fill:#5d433d; stroke:none;" d="M147 139L149 141L147 139z"/>
<path style="fill:#9a6757; stroke:none;" d="M274 139L275 140L274 139z"/>
<path style="fill:#d1a769; stroke:none;" d="M31 140L30 145L35 145L39 152L40 145L38 147L37 147L31 140M46 140L44 142L41 147L48 142L52 144L52 143L46 140M124 140L125 141L124 140z"/>
<path style="fill:#5d433d; stroke:none;" d="M201 140L202 141L201 140z"/>
<path style="fill:#9a6757; stroke:none;" d="M275 140L276 149L277 153L278 153C279.596 147.902 278.752 143.868 275 140z"/>
<path style="fill:#d1a769; stroke:none;" d="M28 141L29 142L28 141M125.667 141.333L126.333 141.667L125.667 141.333M212 141L213 142L212 141z"/>
<path style="fill:#dac5a8; stroke:none;" d="M51 142L52 143L51 142z"/>
<path style="fill:#d1a769; stroke:none;" d="M127 142L128 143L127 142M29 143L30 144L29 143M128 143L128 144L133 147L134 146L128 143M101 144L102 145L101 144z"/>
<path style="fill:#69a07c; stroke:none;" d="M34 145L35 146L34 145z"/>
<path style="fill:#5d433d; stroke:none;" d="M0 146C1.37854 150.153 4.1146 150.106 8 149L8 147L0 146z"/>
<path style="fill:#69a07c; stroke:none;" d="M35 146L36 147L35 146M39 146L39 152L40 152L42 147L39 146z"/>
<path style="fill:#d1a769; stroke:none;" d="M102 146L103 147L102 146M104 146L105 147L104 146M109 146L111 148L109 146M137 146L134 147L138 150L137 146z"/>
<path style="fill:#9a6757; stroke:none;" d="M155 146L156 147L155 146z"/>
<path style="fill:#d1a769; stroke:none;" d="M34 147L35 148L34 147z"/>
<path style="fill:#9a6757; stroke:none;" d="M149 147L150 148L149 147M156 147L157 148L156 147z"/>
<path style="fill:#d1a769; stroke:none;" d="M204 147L204 149L206 149L206 147L204 147z"/>
<path style="fill:#69a07c; stroke:none;" d="M36 148L37 149L36 148z"/>
<path style="fill:#d1a769; stroke:none;" d="M101 148L99 152L101 148z"/>
<path style="fill:#69a07c; stroke:none;" d="M122 148L123 149L122 148z"/>
<path style="fill:#9a6757; stroke:none;" d="M157 148L158 149L157 148z"/>
<path style="fill:#dac5a8; stroke:none;" d="M195 148L196 149L195 148z"/>
<path style="fill:#5d433d; stroke:none;" d="M42 149C42.6192 157.016 51.5165 158.608 58 161L51 157L52 153L42 149z"/>
<path style="fill:#d1a769; stroke:none;" d="M95 149L95 152L96 152L95 149M97 149L97 151L99 151L97 149M106.667 149.333L107.333 149.667L106.667 149.333M122 149L122 152L123 152L122 149M102 150L100 154L104 150L102 150M138 150L139 151L138 150M139 151L141 153L141 151L139 151M94 152L95 153L94 152M98 152L99 153L98 152z"/>
<path style="fill:#69a07c; stroke:none;" d="M102 152L103 153L102 152z"/>
<path style="fill:#d1a769; stroke:none;" d="M121.333 152.667L121.667 153.333L121.333 152.667z"/>
<path style="fill:#5d433d; stroke:none;" d="M54 153L53 155L55 155L54 153z"/>
<path style="fill:#d1a769; stroke:none;" d="M96 153L96 156L97 156L96 153M141.667 153.333L142.333 153.667L141.667 153.333z"/>
<path style="fill:#9a6757; stroke:none;" d="M171 153L172 154L171 153M278 153L278 156L279 156L278 153z"/>
<path style="fill:#5d433d; stroke:none;" d="M58 154L57 156L59 156L58 154z"/>
<path style="fill:#d1a769; stroke:none;" d="M120 154L121 155L120 154M143 154L144 155L143 154z"/>
<path style="fill:#dac5a8; stroke:none;" d="M97.6667 155.333L98.3333 155.667L97.6667 155.333z"/>
<path style="fill:#d1a769; stroke:none;" d="M118 155L117 159L118 155z"/>
<path style="fill:#69a07c; stroke:none;" d="M120 155L121 156L120 155z"/>
<path style="fill:#d1a769; stroke:none;" d="M144 155L145 156L144 155z"/>
<path style="fill:#69a07c; stroke:none;" d="M66 156L67 157L66 156z"/>
<path style="fill:#d1a769; stroke:none;" d="M99 156L99 158L101 158L99 156M101 156L102 157L101 156M146 156L147 157L146 156z"/>
<path style="fill:#9a6757; stroke:none;" d="M279 156L280 198L281 198C281.033 186.128 286.333 166.365 279 156z"/>
<path style="fill:#d1a769; stroke:none;" d="M147 157L148 158L147 157M98 158L99 159L98 158M148.667 158.333L149.333 158.667L148.667 158.333z"/>
<path style="fill:#5d433d; stroke:none;" d="M30 160L30 161L36 161L36 159L30 160z"/>
<path style="fill:#d1a769; stroke:none;" d="M97 159L98 160L97 159M114 161L117 159L114 161z"/>
<path style="fill:#5d433d; stroke:none;" d="M120 159L120 162L122 159L120 159M138 159C139.209 166.241 145.763 162.77 151 162L138 159z"/>
<path style="fill:#d1a769; stroke:none;" d="M150 159L153 161L150 159M172.667 159.333L173.333 159.667L172.667 159.333M177 162L180 159L177 162z"/>
<path style="fill:#5d433d; stroke:none;" d="M48 160L54 163L48 160z"/>
<path style="fill:#d1a769; stroke:none;" d="M96 160L97 161L96 160M103 160L105 163L105 160L103 160M174.667 160.333L175.333 160.667L174.667 160.333z"/>
<path style="fill:#5d433d; stroke:none;" d="M60 161L63 163L63 162L60 161z"/>
<path style="fill:#d1a769; stroke:none;" d="M95 161L96 162L95 161M97 161L98 162L97 161M113 161L102 169L102 170C106.915 169.219 112.65 166.546 113 161M153 161L154 162L153 161M279 161L279 165L280 165L279 161z"/>
<path style="fill:#69a07c; stroke:none;" d="M113 162L114 163L113 162z"/>
<path style="fill:#d1a769; stroke:none;" d="M154 162L155 163L154 162z"/>
<path style="fill:#9a6757; stroke:none;" d="M74 163L75 164L74 163z"/>
<path style="fill:#d1a769; stroke:none;" d="M156 163L157 164L156 163M79 171L79 172C86.7567 174.288 100.454 173.856 101 164C93.6202 164.652 85.0498 166.649 79 171z"/>
<path style="fill:#69a07c; stroke:none;" d="M112 164L113 165L112 164z"/>
<path style="fill:#d1a769; stroke:none;" d="M157 164L158 165L157 164z"/>
<path style="fill:#69a07c; stroke:none;" d="M111 165L112 166L111 165z"/>
<path style="fill:#d1a769; stroke:none;" d="M158.667 165.333L159.333 165.667L158.667 165.333z"/>
<path style="fill:#69a07c; stroke:none;" d="M110 166L111 167L110 166z"/>
<path style="fill:#d1a769; stroke:none;" d="M160 166C160.223 172.231 146.126 176.595 141 177L141 178L144 178L137 183L139 185L130 188L130 190C136.606 191.812 140.267 187.523 146 185L146 184L143 184L143 183L152 180L152 179L146 179L146 178L158 175L164 169L160 166M279 166L280 188L281 188C281 182.439 283.354 169.804 279 166z"/>
<path style="fill:#69a07c; stroke:none;" d="M109 167L110 168L109 167M88 171L96 168L88 171z"/>
<path style="fill:#5d433d; stroke:none;" d="M65.3333 173.667L65.6667 174.333L65.3333 173.667M113 173L114 174L113 173M80 175C82.6967 176.782 84.0792 176.595 86 174L80 175M34 176L32 179L34 182L40.2994 186.261L52 187L43.2631 183.821L34 176M133 179L128 182L128 184L135 185L135 179L133 179z"/>
<path style="fill:#d1a769; stroke:none;" d="M206 180C208.695 185.66 220.781 193.023 218.816 200.302C217.59 204.845 211.95 205.142 211 211L208 209L204 222C200.006 220.274 185.8 217.114 185 223L180 223L185 229L185 230C182.32 230.442 183.277 232.717 184 235L187 234L186 244L185 244L185 242L184 242L183 254L180 253L180 270L177 268L174 274L178 274L178 278L175 275L171 276L172 284L175 282C172.361 286.318 168.328 285.415 164 284L165 282C159.975 277.336 158.225 272.616 160 266L160 261L160 260L160 259L157 252L157 251L159 247L150 257L151 260C147.778 261.819 145.633 264.307 146 268L142 273L146 270L143 276L142 276L142 273C128.029 278.614 134.729 296.076 147 299L147 300L116 295L111 284L110 284C111.831 289.664 113.912 296.574 121 295C123.254 297.672 126.902 297.519 130.17 298.496C139.207 301.199 154.718 305.421 163 300L166 304L165 313L168 312L169 326L172 326L171 333L173 330C176.024 332.391 176.459 334.217 176 338L178 338L177 343L202 346L202 347C196.161 347.255 193.055 348.306 191 354L194 355L194 356L188 355L187 358L182 357L182 356L185 355L184 351L178 348L183 349L183 348L176 344L172 353L178 357L163 357L166 357L166 356L162 351L160 353L159 353L155 350L154 350L140 353L140 354L158 353L157 356L161 357L157 357C154.074 359.182 150.673 363.858 156 365L154 362L172 362L169 360L189 357L173 362L173 363C177.599 364.69 182.53 368.238 187 365L188 365L193 367L188 360C192.622 358.534 195.38 356.933 193 352L201 351L202 347L209 351L209 359L205 358L206 360L205 360L202 359L199 363L199 364L205 365L205 361L207 363L213 363L214 360L218 360L222 369L218 369L219 365L214 368C220.53 371.076 237.616 376.619 243 369L225 370C226.718 364.279 224.441 362.274 221 358C226.026 356.928 227.436 353.962 227 349L237 351L232 343L260 348L260 352L245 352L245 351L251 350L251 349L242 349L242 350L245 350L245 351L241 351L241 352L251 354C253.188 360.101 260.724 358.797 266 358L264 355L268 355L268 350L265 349L265 348L269 349L265 341L268 341L268 338L259 340L262 343L262 344L239 339L239 338L241 338L241 337L236 337L237 335C232.468 334.48 229.484 334.127 228 339L226 337L208 336L203 319C195.134 316.77 193.217 305.055 194 298L196 299C200.757 294.311 207.386 292.087 213 288.573C226.521 280.108 248.832 263.58 254 248L253 248C250.454 252.934 245.621 260.473 240 262C235.066 271.051 220.18 284.693 210 287C213.581 280.376 219.932 274.902 223 268C224.36 264.94 222.883 260.906 224.5 258.167C226.224 255.246 232.424 252.534 233 257L234 257C234.6 250.706 236.648 248.395 241 244L240 251L241 251L243 244L240 243L241 231L244 233L247 215L250 217L252 210L249 205L248 205L247 207L247 205L246 205L246 207L245 207L248 200L247 200L241 203C240.744 197.798 237.028 193.398 232 192L232 191L234 190L233 187L223 181L206 180z"/>
<path style="fill:#dac5a8; stroke:none;" d="M140.667 183.333L141.333 183.667L140.667 183.333z"/>
<path style="fill:#5d433d; stroke:none;" d="M19 186L27 187L27 185L26 184L19 186M99 185C97.8389 192.498 93.1168 190.922 88 194C82.3991 189.131 74.4482 193.736 72 200L80 209L67 210L69 213C60.7446 221.633 75.8099 227.455 83 224L81 219L84 216L88 217L95 223L97 216L88 208L102 199L102 185L99 185M114 185L114 187L116 187L114 185M126 188L127 189L126 188M11 192L13 195C9.86307 195.623 6.11372 195.128 3.48302 197.188C-3.24497 202.456 0 219.335 0 227L0 318L71 316.259L156 317L155 320C158.046 320.484 159.073 320.177 159 317L166 316L163 303C151.706 305.755 140.106 301.221 129 299.17C124.404 298.321 118.064 298.375 114.282 295.272C111.19 292.736 111.293 288.041 109.789 284.576C107.402 279.072 99.2773 274.674 105 269L107 259L101 257L102 254L84 257L89 247L82 244C72.6259 247.592 58.1633 245.802 48 245L46 239C49.7106 237.545 52.0658 236.147 52 232L57 231L58 223L45 217L41 218L43 216L43 215L39 215L39 213C49.0422 214.27 60.1341 213.313 51 201C56.3865 199.889 60.9094 198.173 66 201L70 199L70 198C59.769 196.296 53.6612 186.589 44 192L45 196L32 202C29.8527 188.446 21.0567 190.494 11 192z"/>
<path style="fill:#d1a769; stroke:none;" d="M176 193C173.64 194.514 172.739 195.953 175 198L174 201L180 204L180 205L176 207L176 208L181 209L181 211L183 211L183 208L194 200C190.054 197.856 176.681 186.991 176 193M126.667 190.333L127.333 190.667L126.667 190.333M250.667 190.333L251.333 190.667L250.667 190.333M122 194L122 195L124 197C119.607 198.248 117.697 200.496 117 205L125 201L120 202L120 201L130 198L130 197L127 197L127 196L136 193C130.856 190.534 127.081 192.441 122 194z"/>
<path style="fill:#69a07c; stroke:none;" d="M126 192L127 193L126 192z"/>
<path style="fill:#dac5a8; stroke:none;" d="M217 192L218 193L217 192z"/>
<path style="fill:#d1a769; stroke:none;" d="M252 192L253 193L252 192M255 193L255 196L256 196L255 193z"/>
<path style="fill:#9a6757; stroke:none;" d="M226 195C227.814 200.111 229.131 203.811 224.833 209C222.71 211.565 219.017 212.242 218.333 216C217.944 218.144 219.119 219.026 220 217L230 220L233 198L226 195z"/>
<path style="fill:#d1a769; stroke:none;" d="M247.333 195.667L247.667 196.333L247.333 195.667M252 195L249 200L254 195L252 195M257 195L256 206L257 206C259.203 201.94 260.851 199.469 259 195L257 195M263 196L263 198L265 198L265 196L263 196M279 196L275 211L276 211L279 196z"/>
<path style="fill:#69a07c; stroke:none;" d="M120 197L121 198L120 197z"/>
<path style="fill:#d1a769; stroke:none;" d="M245 197L246 200L247 200L245 197z"/>
<path style="fill:#5d433d; stroke:none;" d="M0 198L1 199L0 198z"/>
<path style="fill:#d1a769; stroke:none;" d="M241 198L242 199L241 198M254 199L255 200L254 199z"/>
<path style="fill:#9a6757; stroke:none;" d="M280 199L281 200L280 199M279.333 200.667L279.667 201.333L279.333 200.667z"/>
<path style="fill:#d1a769; stroke:none;" d="M250 201L250 203L252 201L250 201M261 201L262 202L261 201z"/>
<path style="fill:#9a6757; stroke:none;" d="M278 202L278 205L279 205L278 202z"/>
<path style="fill:#d1a769; stroke:none;" d="M260 204L259 209L260 204M115 205L116 206L115 205z"/>
<path style="fill:#dac5a8; stroke:none;" d="M215 205L217 211L218 209L215 205z"/>
<path style="fill:#d1a769; stroke:none;" d="M231 205L232 206L231 205M251 205L253 210L251 205z"/>
<path style="fill:#9a6757; stroke:none;" d="M277 205L278 206L277 205M27.6667 206.333L28.3333 206.667L27.6667 206.333z"/>
<path style="fill:#d1a769; stroke:none;" d="M107 207L107 208L110 208L110 209L107 209L103 213L103 214L107 214L107 215L102 214L100 220L105 220L105 221L103 221L103 222L107 225L108 225L110 218L103 219L103 218L111 214L110 216L114 215L114 214L111 214L111 213L116 210L110 211L110 210L117 209L117 208L114 206L107 207M116 206L116 207L120 207L120 206L116 206z"/>
<path style="fill:#9a6757; stroke:none;" d="M17 207L17 208L20 208L17 207M21 207L21 208L24 208L21 207M85 207L86 208L85 207z"/>
<path style="fill:#d1a769; stroke:none;" d="M209 207L210 208L209 207z"/>
<path style="fill:#9a6757; stroke:none;" d="M276.333 208.667L276.667 209.333L276.333 208.667M30 211L34 214L30 211M275 211L274 217L283 221L283 220L275 217L275 211z"/>
<path style="fill:#d1a769; stroke:none;" d="M258 212L257 218L258 218L258 212M274 212L274 215L275 215L274 212z"/>
<path style="fill:#9a6757; stroke:none;" d="M92 214L93 215L92 214M109.667 214.333L110.333 214.667L109.667 214.333z"/>
<path style="fill:#d1a769; stroke:none;" d="M181 218L185 217L185 216L183 215L181 218M262 215L263 216L262 215M273.333 215.667L273.667 216.333L273.333 215.667z"/>
<path style="fill:#9a6757; stroke:none;" d="M28 227L25 222C27.3554 217.817 23.1785 214.946 19.4375 218.014C13.2401 223.096 23.5966 227.848 28 227M215 216L216 217L215 216z"/>
<path style="fill:#d1a769; stroke:none;" d="M274 217L272 223C276.675 221.764 282.6 224.771 286 228C282.265 226.807 272.137 221.8 271 227C265.848 227.255 264.281 232.555 263 237L264 237C269.251 224.51 276.938 230.545 286 236L283 232L293 229L286 237C288.751 240.437 290.787 241.56 295 240L294 245L295 245L295 238L301 232L289 239C292.513 234.15 298.17 222.416 287 224L284 223L281 222L274 217M179 218L180 219L179 218M247.333 218.667L247.667 219.333L247.333 218.667M183 219L184 220L183 219M98 221L99 222L98 221z"/>
<path style="fill:#9a6757; stroke:none;" d="M230 221L231 222L230 221M272 224L286 228C283.298 224.123 275.84 220.67 272 224z"/>
<path style="fill:#dac5a8; stroke:none;" d="M281 221L282 222L281 221z"/>
<path style="fill:#9a6757; stroke:none;" d="M284 221L285 222L284 221z"/>
<path style="fill:#d1a769; stroke:none;" d="M99 223L99 224L102 225L101 229L97 230L103 235L100 234L94 237L94 239L98 239L96 242L100 241L99 248L91 249L91 250L98 251L98 250L95 250L95 249L111 246L110 243L105 245L106 241L103 242L104 247L99 240L99 239L101 236L104 237L109 234L104 231L104 230L110 230L110 229L108 228L110 226L99 223M177 222L178 223L177 222M179 222L180 223L179 222M248 222L249 223L248 222z"/>
<path style="fill:#dac5a8; stroke:none;" d="M284 222L285 223L284 222z"/>
<path style="fill:#9a6757; stroke:none;" d="M287 222L287 223L290 223L287 222z"/>
<path style="fill:#dac5a8; stroke:none;" d="M287 223L288 224L287 223z"/>
<path style="fill:#9a6757; stroke:none;" d="M291 223L292 224L291 223z"/>
<path style="fill:#d1a769; stroke:none;" d="M96 226L99 226L98 224L96 226M178 224L180 233L181 233L182 228L178 224z"/>
<path style="fill:#dac5a8; stroke:none;" d="M181 224L182 225L181 224M289 224L289 226L291 226L291 224L289 224z"/>
<path style="fill:#9a6757; stroke:none;" d="M292 224L293 225L292 224z"/>
<path style="fill:#d1a769; stroke:none;" d="M159 225L158 228L159 225z"/>
<path style="fill:#9a6757; stroke:none;" d="M293 225L294 226L293 225z"/>
<path style="fill:#dac5a8; stroke:none;" d="M199.333 226.667L199.667 227.333L199.333 226.667z"/>
<path style="fill:#9a6757; stroke:none;" d="M294 226L295 227L294 226z"/>
<path style="fill:#5d433d; stroke:none;" d="M96 229L99 227L96 229z"/>
<path style="fill:#dac5a8; stroke:none;" d="M293 227L294 228L293 227M186 228L187 229L186 228M202 228L203 229L202 228z"/>
<path style="fill:#9a6757; stroke:none;" d="M267 231L273 229L267 231M295 228L289 239L299 233L299 231L295 228z"/>
<path style="fill:#d1a769; stroke:none;" d="M157 231L160 229L157 231M172 229L173 230L172 229z"/>
<path style="fill:#9a6757; stroke:none;" d="M273.667 229.333L274.333 229.667L273.667 229.333z"/>
<path style="fill:#dac5a8; stroke:none;" d="M283 232L286 237L293 229L283 232z"/>
<path style="fill:#5d433d; stroke:none;" d="M85 230L85 231L87 233L82 235L82 236L87 238L85 240C93.6297 241.404 94.2994 230.704 85 230z"/>
<path style="fill:#dac5a8; stroke:none;" d="M101.667 230.333L102.333 230.667L101.667 230.333M201 230L202 231L201 230M203 230L205 232L205 230L203 230M211 230L212 231L211 230z"/>
<path style="fill:#9a6757; stroke:none;" d="M276 230L277 231L276 230M89 231L90 232L89 231M266.333 231.667L266.667 232.333L266.333 231.667M277.667 231.333L278.333 231.667L277.667 231.333z"/>
<path style="fill:#5d433d; stroke:none;" d="M96 234L100 234C98.4444 232.187 97.5556 232.187 96 234z"/>
<path style="fill:#9a6757; stroke:none;" d="M104.333 232.667L104.667 233.333L104.333 232.667z"/>
<path style="fill:#dac5a8; stroke:none;" d="M217 232L216 238L215 238L211 234L211 242L213 240C214.107 247.734 217.353 251.477 225 253L224 249C230.007 247.999 223.895 237.049 221 235L219 238L217 232z"/>
<path style="fill:#9a6757; stroke:none;" d="M279.667 232.333L280.333 232.667L279.667 232.333z"/>
<path style="fill:#5d433d; stroke:none;" d="M296 232L297 233L296 232z"/>
<path style="fill:#9a6757; stroke:none;" d="M301 232L302 233L301 232z"/>
<path style="fill:#dac5a8; stroke:none;" d="M206 233L207 237C209.768 236.395 209.577 235.711 209 233L206 233z"/>
<path style="fill:#9a6757; stroke:none;" d="M265.333 233.667L265.667 234.333L265.333 233.667M281.667 233.333L282.333 233.667L281.667 233.333M300 233L301 234L300 233z"/>
<path style="fill:#d1a769; stroke:none;" d="M242.333 234.667L242.667 235.333L242.333 234.667z"/>
<path style="fill:#9a6757; stroke:none;" d="M283 234L284 235L283 234M299 234L300 235L299 234M32 235L38 241L39 237L32 235z"/>
<path style="fill:#d1a769; stroke:none;" d="M96 235L97 236L96 235z"/>
<path style="fill:#dac5a8; stroke:none;" d="M235 235L233 237L236 240L237 239L235 235z"/>
<path style="fill:#9a6757; stroke:none;" d="M264.333 235.667L264.667 236.333L264.333 235.667M284 235L285 236L284 235z"/>
<path style="fill:#5d433d; stroke:none;" d="M293 235L292 237L294 237L293 235z"/>
<path style="fill:#dac5a8; stroke:none;" d="M296.333 235.667L296.667 236.333L296.333 235.667z"/>
<path style="fill:#9a6757; stroke:none;" d="M298 235L299 236L298 235M101 236L102 237L101 236z"/>
<path style="fill:#d1a769; stroke:none;" d="M186 236L185 238L187 238L186 236z"/>
<path style="fill:#9a6757; stroke:none;" d="M285 236L286 237L285 236z"/>
<path style="fill:#d1a769; stroke:none;" d="M183 237L184 238L183 237z"/>
<path style="fill:#dac5a8; stroke:none;" d="M204 237L205 238L204 237M239 237L238 240L239 237z"/>
<path style="fill:#9a6757; stroke:none;" d="M263.333 237.667L263.667 238.333L263.333 237.667M297 237L296 244L297 244L297 237z"/>
<path style="fill:#d1a769; stroke:none;" d="M211.333 238.667L211.667 239.333L211.333 238.667M216 238L217 239L216 238M221 238L220 239L220 241L224 246L225 246L223 238L221 238M262 238L254 246L254 247C257.766 246.016 262.272 242.111 262 238z"/>
<path style="fill:#9a6757; stroke:none;" d="M286 238L287 239L286 238z"/>
<path style="fill:#69a07c; stroke:none;" d="M97 239L98 240L97 239z"/>
<path style="fill:#d1a769; stroke:none;" d="M103.667 239.333L104.333 239.667L103.667 239.333z"/>
<path style="fill:#dac5a8; stroke:none;" d="M233 239L231 246L233 239z"/>
<path style="fill:#9a6757; stroke:none;" d="M287 239L288 240L287 239M260 243L263 240L260 243M288 240L289 241L288 240z"/>
<path style="fill:#dac5a8; stroke:none;" d="M294 240L293 244L294 240z"/>
<path style="fill:#69a07c; stroke:none;" d="M98 241L99 242L98 241z"/>
<path style="fill:#9a6757; stroke:none;" d="M99 241L100 242L99 241M289.667 241.333L290.333 241.667L289.667 241.333z"/>
<path style="fill:#69a07c; stroke:none;" d="M94.3333 242.667L94.6667 243.333L94.3333 242.667M96 242L97 243L96 242z"/>
<path style="fill:#9a6757; stroke:none;" d="M97 242L96 248C99.4293 247.265 100.054 243.759 97 242M291 242L292 243L291 242z"/>
<path style="fill:#5d433d; stroke:none;" d="M83 243L84 244L83 243M93 248L98 243L93 248z"/>
<path style="fill:#d1a769; stroke:none;" d="M101 243L102 244L101 243z"/>
<path style="fill:#9a6757; stroke:none;" d="M102 243L102 246L103 246L104 243L102 243z"/>
<path style="fill:#dac5a8; stroke:none;" d="M236 243L236 247L237 247L236 243z"/>
<path style="fill:#9a6757; stroke:none;" d="M259.333 243.667L259.667 244.333L259.333 243.667z"/>
<path style="fill:#d1a769; stroke:none;" d="M292 243L293 244L292 243z"/>
<path style="fill:#9a6757; stroke:none;" d="M100 244L101 245L100 244z"/>
<path style="fill:#5d433d; stroke:none;" d="M101 244L101 246L103 244L101 244z"/>
<path style="fill:#9a6757; stroke:none;" d="M107 244L107 247L109 244L107 244z"/>
<path style="fill:#dac5a8; stroke:none;" d="M227 244L229 246L229 244L227 244z"/>
<path style="fill:#9a6757; stroke:none;" d="M293 244L294 245L293 244M295 244L296 245L295 244z"/>
<path style="fill:#dac5a8; stroke:none;" d="M103.333 245.667L103.667 246.333L103.333 245.667z"/>
<path style="fill:#9a6757; stroke:none;" d="M258 245L259 246L258 245M255 246L254 250L255 250L257 247L255 246M257 246L258 247L257 246z"/>
<path style="fill:#d1a769; stroke:none;" d="M219 247L220 248L219 247M239 247L240 248L239 247z"/>
<path style="fill:#9a6757; stroke:none;" d="M253.333 250.667L253.667 251.333L253.333 250.667M57 251L57 253L59 251L57 251z"/>
<path style="fill:#d1a769; stroke:none;" d="M98 251L96 252L96 253L98 251z"/>
<path style="fill:#9a6757; stroke:none;" d="M252 252L251 254L253 254L252 252z"/>
<path style="fill:#d1a769; stroke:none;" d="M100 253L100 254L103 254L100 253z"/>
<path style="fill:#9a6757; stroke:none;" d="M101 257L107 259L105 269C98.0951 273.475 106.741 280.939 111 284L104.536 273L108.071 262.015L104 254L101 257z"/>
<path style="fill:#d1a769; stroke:none;" d="M104 254L106 257L104 254z"/>
<path style="fill:#9a6757; stroke:none;" d="M250.333 254.667L250.667 255.333L250.333 254.667z"/>
<path style="fill:#dac5a8; stroke:none;" d="M180 258L183 255L180 258z"/>
<path style="fill:#9a6757; stroke:none;" d="M249 256L247 260L249 256z"/>
<path style="fill:#d1a769; stroke:none;" d="M106 257L107 258L106 257M177 257L173 261L172 268C175.388 265.239 179.336 261.441 177 257M107 258L108 259L107 258M108.333 259.667L108.667 260.333L108.333 259.667z"/>
<path style="fill:#9a6757; stroke:none;" d="M244 262L247 260L244 262z"/>
<path style="fill:#d1a769; stroke:none;" d="M109 261L110 262L109 261z"/>
<path style="fill:#dac5a8; stroke:none;" d="M183 261L184 262L183 261z"/>
<path style="fill:#9a6757; stroke:none;" d="M78 265L85 266L84 262L78 265M243 262L244 263L243 262z"/>
<path style="fill:#d1a769; stroke:none;" d="M108 263L109 264L108 263z"/>
<path style="fill:#9a6757; stroke:none;" d="M242 263L243 264L242 263z"/>
<path style="fill:#d1a769; stroke:none;" d="M107.333 264.667L107.667 265.333L107.333 264.667z"/>
<path style="fill:#dac5a8; stroke:none;" d="M188.333 264.667L188.667 265.333L188.333 264.667z"/>
<path style="fill:#9a6757; stroke:none;" d="M241 264L242 265L241 264z"/>
<path style="fill:#dac5a8; stroke:none;" d="M186.333 265.667L186.667 266.333L186.333 265.667z"/>
<path style="fill:#9a6757; stroke:none;" d="M240 265L241 266L240 265z"/>
<path style="fill:#d1a769; stroke:none;" d="M106.333 266.667L106.667 267.333L106.333 266.667z"/>
<path style="fill:#dac5a8; stroke:none;" d="M181 266C181.568 269.408 181.823 271.706 179 271L179 275L182 274L178 289C183.584 286.318 185.372 282.003 185 276L188 277L189 270L188 270L188 275L187 275L186 268L185 268L185 271L184 271L181 266z"/>
<path style="fill:#9a6757; stroke:none;" d="M239 266L240 267L239 266M238 267L239 268L238 267M53 268L59 271L53 268M80 268L81 269L80 268z"/>
<path style="fill:#d1a769; stroke:none;" d="M169 268L170 269L169 268z"/>
<path style="fill:#dac5a8; stroke:none;" d="M189 268L190 269L189 268z"/>
<path style="fill:#9a6757; stroke:none;" d="M236.667 268.333L237.333 268.667L236.667 268.333z"/>
<path style="fill:#d1a769; stroke:none;" d="M105 269C103.607 271.912 103.221 273.143 106 275L104 273L104 272L105 269z"/>
<path style="fill:#9a6757; stroke:none;" d="M235.333 269.667L235.667 270.333L235.333 269.667z"/>
<path style="fill:#d1a769; stroke:none;" d="M140.333 270.667L140.667 271.333L140.333 270.667M171.333 270.667L171.667 271.333L171.333 270.667z"/>
<path style="fill:#9a6757; stroke:none;" d="M234 271L235 272L234 271M233 272L234 273L233 272M231 273L231 275L233 273L231 273M222 283L231 275L222 283z"/>
<path style="fill:#d1a769; stroke:none;" d="M106 276L107 277L106 276M107.333 277.667L107.667 278.333L107.333 277.667M108 279L109 280L108 279M109 281L110 282L109 281M110 282L111 283L110 282z"/>
<path style="fill:#9a6757; stroke:none;" d="M221 283L222 284L221 283M219.667 284.333L220.333 284.667L219.667 284.333M109 285L110 286L109 285M160 285C157.765 289.716 158.638 293.886 163 297L162 285L160 285M218 285L219 286L218 285M110 286L111 287L110 286M215 286L215 287L218 287L215 286M111 287L112 288L111 287M214 287L211 289L211 290L214 287M170 288L169 294L170 294L172 288L170 288M173 288L173 290L175 290L173 288M111 289C112.534 298.569 122.826 298.932 131 299L131 298L121 295C115.994 295.423 114.242 292.327 111 289M195.667 290.333L196.333 290.667L195.667 290.333M210 290L211 291L210 290M179 296L184 291C180.526 291.577 179.577 292.526 179 296M203 293L203 294L210 292L203 293M171 293L172 297L168 298C168.252 301.176 167.252 305.482 171 306L171 320L172 320L173 317L174 327L178 329L180 326C176.058 326 177.542 305.038 171 306L170 303L174 302L174 292L171 293M202 294L203 295L202 294M201 295L197 296L197 297L201 295M194 298L193 302L194 298M196 298L197 299L196 298M131.667 299.333L132.333 299.667L131.667 299.333M133 300L133 301L163 305L164 305L163 300L133 300M163 299L164 300L163 299z"/>
<path style="fill:#dac5a8; stroke:none;" d="M179 299C176.318 305.239 180.41 309.055 181.931 315C183.874 322.593 182.103 332.603 188 339L187 315L186 315L185 317C182.264 310.36 183.293 307.704 185 301L181 303L180 303L179 299M164.667 303.333L165.333 303.667L164.667 303.333z"/>
<path style="fill:#9a6757; stroke:none;" d="M195 340L202 337C206.255 325.216 192.853 314.549 190 303C180.679 305.972 190.177 323.596 191.428 330.004C192.304 334.487 189.913 337.948 195 340M164.333 305.667L164.667 306.333L164.333 305.667M194.333 306.667L194.667 307.333L194.333 306.667M165 309L165 312L166 312L165 309M179 310L180 311L179 310M195 310L196 311L195 310z"/>
<path style="fill:#69a07c; stroke:none;" d="M179 311L182 318L179 311z"/>
<path style="fill:#d1a769; stroke:none;" d="M180 311L181 312L180 311z"/>
<path style="fill:#dac5a8; stroke:none;" d="M166 312C166.156 325.342 155.636 324.706 145 324L146 321C124.916 315.98 100.693 320.499 80 323C75.0448 315.357 65.5045 324.358 60 321C40.7938 322.305 18.8762 327.494 0 323L2 337C-1.35085 341.452 -1.73972 354.582 3 358L0 359L0 363L11 359C11.3693 366.695 29.5108 359.165 35 357L33 353L37 352C38.3983 355.657 40.1655 356.563 44 357L43 360L49 358L49 357L44 357L44 356L69 356L69 357L64 358L67 361C59.2174 358.068 55.165 357.7 47 360C49.0183 368.389 55.8912 367.246 63 367L63 368L48 371L48 372L79 372L79 371L74 368L89 362L85 367C88.9353 373.294 97.1656 371.93 104 372L104 368L112 367C110.758 375.131 122.249 371.168 126.91 370.853C142.98 369.77 157.989 372 174 372L174 371L176 367C178.098 372.707 182.638 372 188 372L219 372L214 368L219 365L218 369L222 369L218 360L214 360L213 363L207 363L207 361L205 361L205 365L199 364L199 363L209 359L209 351L202 347L201 351L193 352C194.386 356.749 192.159 358.103 188 360L193 367L188 365L187 365C177 369.34 165.178 357.296 154 362L156 365C152.27 362.485 154.598 359.862 157 357L161 357L157 356L158 353L140 354L140 353L154 350L155 350L159 353L160 353L162 351L166 356L163 357C166.611 360.567 173.121 357.554 178 357L172 353L176 344L189 350L183 352L185 355L182 356L182 357L187 358L188 355L194 356L194 355L191 354C193.621 348.898 196.326 347.468 202 347L202 346L177 343L178 338L176 338C176.819 334.153 176.641 331.91 173 330L173 333L171 333L172 326L169 326L168 312L166 312z"/>
<path style="fill:#69a07c; stroke:none;" d="M165 313L166 314L165 313z"/>
<path style="fill:#d1a769; stroke:none;" d="M181 313L182 314L181 313z"/>
<path style="fill:#9a6757; stroke:none;" d="M196 313L197 314L196 313M165 314L166 315L165 314M179 314L180 315L179 314M197.333 314.667L197.667 315.333L197.333 314.667M68 316L68 317L75 317L68 316M128.667 316.333L129.333 316.667L128.667 316.333z"/>
<path style="fill:#69a07c; stroke:none;" d="M0 319L0 323C23.4565 321.995 47.4313 320.725 71 320.019C75.9367 319.871 80.2651 322.682 85 322.483C105.106 321.636 125.56 317.205 146 321C146.884 328.037 161.858 322.502 166 321L166 317L161 317C158.73 321.076 156.019 320.65 152 319L155 318C143.399 312.425 123.76 317 111 317C73.8749 317 36.9915 319.024 0 319z"/>
<path style="fill:#9a6757; stroke:none;" d="M136.667 316.333L137.333 316.667L136.667 316.333M141.667 316.333L142.333 316.667L141.667 316.333M165 316L166 317L165 316M198 316L198 317L202 317L198 316M212.667 316.333L213.333 316.667L212.667 316.333M274 316L275 317L274 316z"/>
<path style="fill:#69a07c; stroke:none;" d="M199 317C204.39 322.59 217.591 320.847 225 321L225 322L223 324L229 324L229 323L227 320L231 323L245 321C246.403 327.547 253.365 322.039 257.083 321.389C260.483 320.795 263.671 323.616 267 323.917C270.632 324.245 274.23 322.798 278 322.972C289.19 323.49 301.074 324.084 312 323.528C315.085 323.371 317.943 321.33 321 321.528C325.99 321.851 330.877 324.047 336 324C340.203 323.961 343.674 321.647 348 322.028C350.915 322.285 353.117 324.977 356 324.806C358.78 324.64 360.44 322.068 363 321.333C366.12 320.438 368.13 322.859 371 323.278C374.97 323.857 377.713 320.937 382 322C381.483 315.513 376.555 315.799 371 316.039C360.404 316.499 349.655 317.246 339 316.985C292.432 315.844 245.741 317 199 317z"/>
<path style="fill:#9a6757; stroke:none;" d="M278 316L278 317L281 317L278 316M299 316L299 317L313 317L299 316M324 316L325 317L324 316M333.667 316.333L334.333 316.667L333.667 316.333M336.667 316.333L337.333 316.667L336.667 316.333M348 316L348 317L352 317L348 316M360 316L360 317L364 317L360 316M365.667 316.333L366.333 316.667L365.667 316.333M380.667 316.333L381.333 316.667L380.667 316.333M53 317L53 318L66 318L53 317M155 317L152 319L152 320L155 317M159 317L160 320L161 320L161 317L159 317M259 317L259 318L267 318L259 317M0 318L0 319L4 319L0 318M31 318L31 319L50 319L31 318z"/>
<path style="fill:#d1a769; stroke:none;" d="M166 318L167 319L166 318z"/>
<path style="fill:#9a6757; stroke:none;" d="M9 319L9 320L30 320L9 319z"/>
<path style="fill:#dac5a8; stroke:none;" d="M172 319L172 323L173 323L172 319z"/>
<path style="fill:#d1a769; stroke:none;" d="M65 320L66 321L65 320z"/>
<path style="fill:#9a6757; stroke:none;" d="M155 320L156 321L155 320M159 320L160 321L159 320z"/>
<path style="fill:#dac5a8; stroke:none;" d="M202 320L208 336L237 335L236 337L241 337L241 338L239 338L239 339L262 344L262 343L259 340L268 338L265 341L269 349L265 348L265 349L268 350L268 355L264 355L266 358C260.438 358.279 254.231 359.405 251 354L231 354L230 354L229 351L228 351L221 358C223.582 362.693 226.256 364.223 225 370L243 369L241 371L241 372L256 372L256 371L252 370L257 366L257 365L254 365L266 360L261 363L261 365L275.96 365.604L284.184 371.682L323 371.316L345 371L343 366L362 364L362 368L352 368C357.265 377.013 374.733 370.991 382 368L382 363L378 363L378 362L382 362L382 356L376 354C372.691 356.791 369.753 354.212 366 353C371.756 350.25 376.177 352.474 382 354L382 350L359 350C358.017 354.194 354.838 352.951 352 351C354.643 351.287 356.599 351.811 357 349L369 349L369 345L354 345L357 348L351 350L352 345L347 343L339 344L341 347L331 347L330 346L334 342L334 341L331 340L331 339L341 340L339 343L353 341L353 340L338 334L338 332L347 335L348 332L355 335C362.386 331.821 373.751 332.397 382 334L379 328L382 327C380.905 320.756 370.332 324.34 365 324.119C361.107 323.958 357.724 326.821 354 326.429C350.789 326.091 348.326 323.47 345 323.346C336.025 323.009 322.939 325.66 315 330C315.696 328.573 317.166 326.348 315.343 325.073C310.119 321.417 301.405 326.419 296 326.682C289.193 327.013 282.014 319.826 277 328C259.953 318.752 234.1 326.5 216 328L218 325L211 325L219 324L222 322L202 320z"/>
<path style="fill:#d1a769; stroke:none;" d="M218 320L219 321L218 320M227 320L227 321L230 321L230 322L227 322L227 323L229 323L229 324L223 324L225 322L225 321L219 324C215.515 322.551 213.387 321.74 211 325L218 325L216 328L232 325.262L265 324L265 323L245 321L231 323L227 320M42 321L43 322L42 321M46 321L46 322L49 322L46 321M50 321L51 322L50 321M163 321L164 322L163 321z"/>
<path style="fill:#dac5a8; stroke:none;" d="M227 321L227 322L230 322L227 321z"/>
<path style="fill:#d1a769; stroke:none;" d="M265 324L265 325L277 328C283.444 320.848 287.562 327.187 295 327.235C301.147 327.275 308.331 321.909 314.553 325.269C316.458 326.297 315.463 328.436 315 330L345 323.668L355 327.049L382 323C375.137 317.908 362.445 324.501 355.09 324.003C325.448 321.998 295.251 322.08 265 324M1 323L1 324L13 324L1 323M25 322L25 323L35 323L25 322M37 322L38 323L37 322M60 322L60 323L64 323L60 322M80 322L81 323L80 322M86 322L84 323L84 324L86 322M15 323L15 324L18 324L15 323M24 323L25 324L24 323M36 323L37 324L36 323M145 323L146 324L145 323M160.667 323.333L161.333 323.667L160.667 323.333M18 324L18 325L24 325L18 324M148 324L149 325L148 324M151 324L151 325L156 325L151 324M379 327L379 329L382 329L382 327L379 327M73 328L74 329L73 328M267 328L268 329L267 328M321 328L322 334L323 334L331 330L331 329L321 328M7 331L11 330L7 331M68 329L69 331L70 331L71 329L68 329z"/>
<path style="fill:#9a6757; stroke:none;" d="M181 329L180 331L181 329z"/>
<path style="fill:#d1a769; stroke:none;" d="M0.333333 330.667L0.666667 331.333L0.333333 330.667M21 330L21 332L27 332L27 330L21 330M127 333L130 331L127 333z"/>
<path style="fill:#dac5a8; stroke:none;" d="M177 331L178 332L177 331z"/>
<path style="fill:#d1a769; stroke:none;" d="M333 331L334 332L333 331M355 335L348 332L347 335L338 332L338 334L353 340L353 341L339 343L341 340L331 339L331 340L334 341L334 342L330 346L331 347L341 347L339 344L347 343L352 345L351 350L357 348L354 345L369 345L369 349L370 349L374 345L376 347L376 344L379 344L377 349L377 350L382 350L382 341L377 341L376 341C373.806 344.443 370.848 344.169 367 344C371.599 339.619 380.861 340.828 382 334C374.531 331.695 361.406 330.975 355 335M55 333L55 339C61.62 335.344 66.7552 336.092 74 337C68.2727 332.284 61.8673 333.389 55 333M150 332L150 335L153 334L153 333L150 332M261 332L261 334L264 334L264 332L261 332M277 334L280 334L279 332L277 334M302 332L303 333L302 332M2 334L2 335L5 336L2 337L2 338L7 337L2 334M45 333L44 335L45 333M77 335L77 336L84 338L86 334L77 335M110 334L110 335L116 335L110 334z"/>
<path style="fill:#9a6757; stroke:none;" d="M357 335L357 336C359.993 335.936 361.346 336.054 362 333L357 335M373 334L373 335L378 335L373 334z"/>
<path style="fill:#d1a769; stroke:none;" d="M20 334L23 336L23 335L20 334z"/>
<path style="fill:#9a6757; stroke:none;" d="M65 334L66 335L65 334M80 334L84 336L80 334z"/>
<path style="fill:#d1a769; stroke:none;" d="M142 334L138 339L123 341L123 342L137 342L136 340L139 340L154 344C150.701 338.766 145.202 341.218 140 341L148 338L142 334z"/>
<path style="fill:#9a6757; stroke:none;" d="M183 334L181 337L183 334M204 334C202.71 347.689 223.131 342.894 232 343L232 342C221.645 341.554 212.695 339.237 204 334z"/>
<path style="fill:#d1a769; stroke:none;" d="M284 338L284 339L299 337C293.67 333.203 289.021 334.482 284 338M301 336L301 339L308 337L307 334L301 336M311 334L312 335L311 334z"/>
<path style="fill:#9a6757; stroke:none;" d="M348 336C350.168 336.716 351.031 337.294 351 335L355 336L348 336z"/>
<path style="fill:#d1a769; stroke:none;" d="M51 335L52 336L51 335M120 335L118 338L120 335z"/>
<path style="fill:#9a6757; stroke:none;" d="M292 335L293 336L292 335z"/>
<path style="fill:#d1a769; stroke:none;" d="M325 335L326 336L325 335M332 338L337 336L332 338z"/>
<path style="fill:#5d433d; stroke:none;" d="M351.667 335.333L352.333 335.667L351.667 335.333z"/>
<path style="fill:#dac5a8; stroke:none;" d="M359 337L359 338L366 340L357 340L358 343L377 338L376 335L359 337z"/>
<path style="fill:#9a6757; stroke:none;" d="M379.333 335.667L379.667 336.333L379.333 335.667z"/>
<path style="fill:#d1a769; stroke:none;" d="M0 336L0 338L2 336L0 336M14.6667 336.333L15.3333 336.667L14.6667 336.333M38 342L37 338L40 337C36.05 336.136 35.0429 339.707 38 342M44 336L41 339L41 344L33 346L39 347L42 344C40.3595 346.734 39.3263 345.861 42 348L37 349L37 350L45 349C43.6499 342.918 46.0258 340.872 49 336L44 336z"/>
<path style="fill:#9a6757; stroke:none;" d="M72 336L73 337L72 336z"/>
<path style="fill:#d1a769; stroke:none;" d="M98 336L98 338C91.6176 336.613 74.5389 338.365 70 343L73 342L74 342L74 345L75 345C77.6652 340.438 83.1342 340.615 88 340L87 343L94 339L93 343L93 344L96 343L95 339L105 336L98 336M255 336L255 337L258 337L255 336z"/>
<path style="fill:#9a6757; stroke:none;" d="M294.667 336.333L295.333 336.667L294.667 336.333z"/>
<path style="fill:#d1a769; stroke:none;" d="M314 336L315 337L314 336M317 337L317 338L321 338L317 337z"/>
<path style="fill:#69a07c; stroke:none;" d="M352 336L351 338L353 338L352 336z"/>
<path style="fill:#dac5a8; stroke:none;" d="M354 336L354 338L357 338L357 336L354 336z"/>
<path style="fill:#d1a769; stroke:none;" d="M357 336L358 340L366 340L365 337L359 338L359 337L362 337L357 336M26 337L26 338L32 341L33 337L30 339L26 337z"/>
<path style="fill:#9a6757; stroke:none;" d="M29.6667 337.333L30.3333 337.667L29.6667 337.333M33 340L36 337L33 340z"/>
<path style="fill:#d1a769; stroke:none;" d="M51 337L53 339L53 337L51 337z"/>
<path style="fill:#9a6757; stroke:none;" d="M53 337L53 338L56 338L53 337M96.6667 337.333L97.3333 337.667L96.6667 337.333z"/>
<path style="fill:#d1a769; stroke:none;" d="M112 341L114 341L112 345L118 342L115 340L117 338L112 341M125 337L124 339L126 339L125 337M128 337L128 338L131 338L128 337M157.667 337.333L158.333 337.667L157.667 337.333z"/>
<path style="fill:#9a6757; stroke:none;" d="M226 337L226 339L228 339L228 337L226 337M232.667 337.333L233.333 337.667L232.667 337.333z"/>
<path style="fill:#d1a769; stroke:none;" d="M306 344L310 344L313 341L317 343L316 340C318.411 341.931 317.307 343.362 316 346L320 346L324 344L322 341L329 337C322.524 337.191 309.538 338.238 306 344z"/>
<path style="fill:#69a07c; stroke:none;" d="M30 338L31 339L30 338M32 338L35 341L35 340L32 338M35 338L36 339L35 338M53.6667 338.333L54.3333 338.667L53.6667 338.333z"/>
<path style="fill:#9a6757; stroke:none;" d="M323 338L324 339L323 338M354 341L359 339L354 341M363.667 338.333L364.333 338.667L363.667 338.333z"/>
<path style="fill:#dac5a8; stroke:none;" d="M381 338L367 344C370.739 344.644 375.054 345.436 376 341L377 341L378 343L381 338z"/>
<path style="fill:#d1a769; stroke:none;" d="M57 340L57 341L64 341L57 340z"/>
<path style="fill:#9a6757; stroke:none;" d="M266 339L267 340L266 339z"/>
<path style="fill:#d1a769; stroke:none;" d="M270 339L270 341L275 341L270 339M282 339L274 346L276 344L276 343L272 348L280 349L280 348L278 346L282 350L285 349L284 351L285 351L286 351L285 348L286 346L292 347L292 348L288 348L288 351L296 349L296 348L294 348L294 347L304 349L304 348L296 346L298 343L291 340L291 343C287.884 341.416 286.02 340.875 284 344L285 344L288 342L288 343L283 348L281 345L281 344L283 344L283 343L284 340L282 339z"/>
<path style="fill:#9a6757; stroke:none;" d="M370.667 339.333L371.333 339.667L370.667 339.333z"/>
<path style="fill:#d1a769; stroke:none;" d="M6 341L6 342L9 342L9 341L6 341z"/>
<path style="fill:#9a6757; stroke:none;" d="M62 340L63 341L62 340M77 341L77 342L88 342L88 340L77 341M136 340L136 341L139 341L136 340z"/>
<path style="fill:#d1a769; stroke:none;" d="M160 341L160 342L167 342L160 341M296 341L296 342L303 342L301 345L305 341L296 341z"/>
<path style="fill:#9a6757; stroke:none;" d="M316 340L317 343L310 343L310 344C314.388 344.137 317.534 344.723 319 340L316 340z"/>
<path style="fill:#d1a769; stroke:none;" d="M329 340L330 341L329 340z"/>
<path style="fill:#69a07c; stroke:none;" d="M7 341L8 342L7 341z"/>
<path style="fill:#d1a769; stroke:none;" d="M11.6667 341.333L12.3333 341.667L11.6667 341.333M17 344L23 343L17 344M103 341L104 342L103 341z"/>
<path style="fill:#69a07c; stroke:none;" d="M137 341L138 342L137 341M146 341L147 342L146 341z"/>
<path style="fill:#dac5a8; stroke:none;" d="M201 342L211 344L201 342z"/>
<path style="fill:#9a6757; stroke:none;" d="M232 343L247 346L247 347L239 347L227 351L254 349L254 350L247 353L260 352L260 348C249.961 348.529 242.919 337.971 232 343z"/>
<path style="fill:#dac5a8; stroke:none;" d="M262 341L263 342L262 341z"/>
<path style="fill:#9a6757; stroke:none;" d="M281 342L284 344L283 341L281 342z"/>
<path style="fill:#69a07c; stroke:none;" d="M284 341L285 342L284 341z"/>
<path style="fill:#9a6757; stroke:none;" d="M289 343L292 341L289 343M295 342L295 343L302 344L295 342z"/>
<path style="fill:#dac5a8; stroke:none;" d="M310 343L313 341L310 343z"/>
<path style="fill:#9a6757; stroke:none;" d="M23.6667 342.333L24.3333 342.667L23.6667 342.333z"/>
<path style="fill:#d1a769; stroke:none;" d="M25 342L24 343L24 344L25 345L26 345L27 344L27 343L25 342M53 342L56 346L56 342L53 342z"/>
<path style="fill:#dac5a8; stroke:none;" d="M75 342L75 344L78 344L78 342L75 342z"/>
<path style="fill:#d1a769; stroke:none;" d="M78 342L76 345L77 348L81 343L78 342M84 342L85 343L84 342z"/>
<path style="fill:#9a6757; stroke:none;" d="M115 342L116 343L115 342M142 342L142 343L149 343L142 342M151.667 342.333L152.333 342.667L151.667 342.333z"/>
<path style="fill:#d1a769; stroke:none;" d="M206 342L206 343L210 343L206 342z"/>
<path style="fill:#9a6757; stroke:none;" d="M250.667 342.333L251.333 342.667L250.667 342.333z"/>
<path style="fill:#dac5a8; stroke:none;" d="M283 348L288 343C284.465 342.071 283.083 344.818 283 348z"/>
<path style="fill:#9a6757; stroke:none;" d="M293 342L294 343L293 342z"/>
<path style="fill:#69a07c; stroke:none;" d="M301.667 342.333L302.333 342.667L301.667 342.333z"/>
<path style="fill:#dac5a8; stroke:none;" d="M308 342L309 343L308 342M354 343L354 344L358 344L354 343z"/>
<path style="fill:#d1a769; stroke:none;" d="M0 343L1 344L0 343M12 343L11 346L11 347L16 350L21 346L21 345L12 343z"/>
<path style="fill:#9a6757; stroke:none;" d="M43 344L43 345L47 344L43 344z"/>
<path style="fill:#d1a769; stroke:none;" d="M45 344L45 345L49 346L49 343L45 344M98 345L102 344L98 345M108 343L109 344L108 343M110 343L111 344L110 343z"/>
<path style="fill:#9a6757; stroke:none;" d="M111.667 343.333L112.333 343.667L111.667 343.333z"/>
<path style="fill:#d1a769; stroke:none;" d="M134 343L134 348L139 349L138 344L134 343z"/>
<path style="fill:#69a07c; stroke:none;" d="M144 343L144 344L148 344L144 343z"/>
<path style="fill:#d1a769; stroke:none;" d="M164 343L164 344L167 344L165 347L170 346L164 343z"/>
<path style="fill:#dac5a8; stroke:none;" d="M287 344L287 345L296 345L287 344z"/>
<path style="fill:#9a6757; stroke:none;" d="M322 343L323 344L322 343z"/>
<path style="fill:#d1a769; stroke:none;" d="M325 343L326 344L325 343M329 343L330 344L329 343z"/>
<path style="fill:#9a6757; stroke:none;" d="M332.667 343.333L333.333 343.667L332.667 343.333M359 346L366 346C363.355 343.308 361.346 342.795 359 346M12.3333 344.667L12.6667 345.333L12.3333 344.667M16 344L16 345L19 345L16 344z"/>
<path style="fill:#dac5a8; stroke:none;" d="M41 344L42 345L41 344z"/>
<path style="fill:#d1a769; stroke:none;" d="M58 344L59 345L58 344z"/>
<path style="fill:#9a6757; stroke:none;" d="M59.6667 344.333L60.3333 344.667L59.6667 344.333z"/>
<path style="fill:#d1a769; stroke:none;" d="M61 344L60 346L62 346L61 344M65 344L66 345L65 344z"/>
<path style="fill:#69a07c; stroke:none;" d="M75 344L76 345L75 344M78 344L79 345L78 344z"/>
<path style="fill:#d1a769; stroke:none;" d="M103 346L106 344L103 346z"/>
<path style="fill:#9a6757; stroke:none;" d="M135 344L136 345L135 344z"/>
<path style="fill:#dac5a8; stroke:none;" d="M255 347L259 347C257.42 344.854 256.538 344.83 255 347z"/>
<path style="fill:#9a6757; stroke:none;" d="M279 344L280 345L279 344z"/>
<path style="fill:#69a07c; stroke:none;" d="M281.667 344.333L282.333 344.667L281.667 344.333z"/>
<path style="fill:#d1a769; stroke:none;" d="M304 344L305 345L304 344z"/>
<path style="fill:#9a6757; stroke:none;" d="M319 344L320 345L319 344z"/>
<path style="fill:#69a07c; stroke:none;" d="M320 344L321 345L320 344z"/>
<path style="fill:#dac5a8; stroke:none;" d="M332.667 344.333L333.333 344.667L332.667 344.333z"/>
<path style="fill:#9a6757; stroke:none;" d="M353 344L354 345L353 344z"/>
<path style="fill:#dac5a8; stroke:none;" d="M376 347L379 344L376 347z"/>
<path style="fill:#9a6757; stroke:none;" d="M381 344L382 345L381 344z"/>
<path style="fill:#69a07c; stroke:none;" d="M11 345L12 346L11 345z"/>
<path style="fill:#d1a769; stroke:none;" d="M31 345L32 346L31 345z"/>
<path style="fill:#69a07c; stroke:none;" d="M35 345L36 346L35 345z"/>
<path style="fill:#9a6757; stroke:none;" d="M38 345L38 346L42 346L38 345z"/>
<path style="fill:#d1a769; stroke:none;" d="M50 347L53 345L50 347M84 349L84 350L78 350L78 351L84 353L84 352L82 352L82 351L87 351L87 352L85 352L85 353L90 350L84 349L84 348L92 349L97 345L84 349M119 345L119 346L122 346L119 345M125 345L125 346L130 348L125 345M144 346L144 348L151 350L150 345L144 346z"/>
<path style="fill:#9a6757; stroke:none;" d="M150 345L150 347L152 347L152 345L150 345z"/>
<path style="fill:#d1a769; stroke:none;" d="M152.333 345.667L152.667 346.333L152.333 345.667z"/>
<path style="fill:#dac5a8; stroke:none;" d="M235 345L237 350L238 350L235 345z"/>
<path style="fill:#d1a769; stroke:none;" d="M236 345L238 350L239 350L239 347L247 347L236 345M268 345L271 347L268 345z"/>
<path style="fill:#9a6757; stroke:none;" d="M270 345L273 347L270 345z"/>
<path style="fill:#d1a769; stroke:none;" d="M305 345L306 348L313 347L313 346L305 345M324 353C318.111 353.699 313.765 353.076 311 359L316 359L316 360L311 360C311.431 363.828 312.229 365.81 316 367L315 363L325 364L325 363L320 359L335 359L335 361C342.328 359.722 353.19 365.928 359 360L349 354L343 360L344 357L329 359L328 356L331 352L328 351L330 346C323.951 344.277 320.349 347.212 324 353z"/>
<path style="fill:#9a6757; stroke:none;" d="M331 345L332 346L331 345z"/>
<path style="fill:#d1a769; stroke:none;" d="M342.667 345.333L343.333 345.667L342.667 345.333z"/>
<path style="fill:#dac5a8; stroke:none;" d="M372.667 345.333L373.333 345.667L372.667 345.333M13 346L14 347L13 346z"/>
<path style="fill:#69a07c; stroke:none;" d="M39 346L40 347L39 346z"/>
<path style="fill:#d1a769; stroke:none;" d="M53 346L53 347L61 349L61 350L56 351L56 352L62 351L57 346L57 348L53 346z"/>
<path style="fill:#69a07c; stroke:none;" d="M54 346L55 347L54 346z"/>
<path style="fill:#9a6757; stroke:none;" d="M55 346L57 348L57 346L55 346z"/>
<path style="fill:#d1a769; stroke:none;" d="M162 346L162 348L164 346L162 346z"/>
<path style="fill:#9a6757; stroke:none;" d="M215 346L215 347L225 348L225 347L215 346M263 346L263 348L265 348L265 346L263 346M278 346L278 348L281 348L281 346L278 346M286 346L286 347L292 348L286 346M323 346L324 347L323 346M326.667 346.333L327.333 346.667L326.667 346.333M371 346L368 349L368 350L375 350L374 348L375 348L379 349L371 346z"/>
<path style="fill:#d1a769; stroke:none;" d="M1 348L1 349L9 349L9 347L1 348z"/>
<path style="fill:#9a6757; stroke:none;" d="M84 348L84 349L89 348L84 348z"/>
<path style="fill:#d1a769; stroke:none;" d="M131.667 347.333L132.333 347.667L131.667 347.333z"/>
<path style="fill:#9a6757; stroke:none;" d="M137 347L138 348L137 347z"/>
<path style="fill:#69a07c; stroke:none;" d="M287 347L287 348L290 348L287 347z"/>
<path style="fill:#9a6757; stroke:none;" d="M294 347L294 348L301 348L294 347z"/>
<path style="fill:#69a07c; stroke:none;" d="M306 347L307 348L306 347z"/>
<path style="fill:#9a6757; stroke:none;" d="M308 347L309 348L308 347M381 347L382 348L381 347z"/>
<path style="fill:#d1a769; stroke:none;" d="M11 348L12 349L11 348M25 348L26 349L25 348M50.3333 348.667L50.6667 349.333L50.3333 348.667z"/>
<path style="fill:#dac5a8; stroke:none;" d="M57 348L58 349L57 348z"/>
<path style="fill:#9a6757; stroke:none;" d="M55 349L55 350L61 350L55 349z"/>
<path style="fill:#69a07c; stroke:none;" d="M87 348L87 349L90 349L87 348z"/>
<path style="fill:#9a6757; stroke:none;" d="M90 348L91 349L90 348z"/>
<path style="fill:#d1a769; stroke:none;" d="M97 348L97 349L101 350L97 348M115 348L115 349L119 349L115 348z"/>
<path style="fill:#9a6757; stroke:none;" d="M178 348L185 352L178 348z"/>
<path style="fill:#69a07c; stroke:none;" d="M280 348L281 349L280 348M297 348L297 349L301 349L297 348z"/>
<path style="fill:#9a6757; stroke:none;" d="M352 348L353 349L352 348M354 348L355 349L354 348z"/>
<path style="fill:#5d433d; stroke:none;" d="M374.667 348.333L375.333 348.667L374.667 348.333z"/>
<path style="fill:#d1a769; stroke:none;" d="M19 352L24 352L23 349L19 352M46 349L46 350L49 351L46 349M52 351L55 349L52 351z"/>
<path style="fill:#9a6757; stroke:none;" d="M97.6667 349.333L98.3333 349.667L97.6667 349.333z"/>
<path style="fill:#d1a769; stroke:none;" d="M104 349L105 350L104 349M120.667 349.333L121.333 349.667L120.667 349.333z"/>
<path style="fill:#9a6757; stroke:none;" d="M122 349L122 350L124 352L125 352L126 350L122 349z"/>
<path style="fill:#d1a769; stroke:none;" d="M125 349L126 350L125 349M184 349L185 350L184 349M186 349L186 350L189 351L186 349z"/>
<path style="fill:#5d433d; stroke:none;" d="M240 349L241 350L240 349z"/>
<path style="fill:#dac5a8; stroke:none;" d="M245.667 349.333L246.333 349.667L245.667 349.333M251 349L252 350L251 349z"/>
<path style="fill:#d1a769; stroke:none;" d="M252.667 349.333L253.333 349.667L252.667 349.333z"/>
<path style="fill:#dac5a8; stroke:none;" d="M262 349L263 350L262 349z"/>
<path style="fill:#9a6757; stroke:none;" d="M283.667 349.333L284.333 349.667L283.667 349.333z"/>
<path style="fill:#d1a769; stroke:none;" d="M306 352L311 351L304 352L305 355L311 355L314 352C311.083 349.928 308.422 349.023 306 352z"/>
<path style="fill:#9a6757; stroke:none;" d="M322 349L327 352C326.346 348.946 324.993 349.064 322 349z"/>
<path style="fill:#d1a769; stroke:none;" d="M343 349L344 350L343 349M357 349L359 352L352 351C354.773 353.744 356.505 353.577 360 352L360 349L357 349z"/>
<path style="fill:#9a6757; stroke:none;" d="M360 349L361 350L360 349z"/>
<path style="fill:#d1a769; stroke:none;" d="M361 349L361 350L368 350L361 349M372 349L373 350L372 349z"/>
<path style="fill:#69a07c; stroke:none;" d="M375 349L376 350L375 349z"/>
<path style="fill:#9a6757; stroke:none;" d="M5 350L6 351L5 350z"/>
<path style="fill:#d1a769; stroke:none;" d="M1 351C3.1302 357.305 14.3288 355.979 15 350L14 350L14 353C10.0607 349.348 6.00227 350.667 1 351z"/>
<path style="fill:#9a6757; stroke:none;" d="M12 350L14 353L12 350M42 350L43 351L42 350z"/>
<path style="fill:#d1a769; stroke:none;" d="M44 350L45 351L44 350z"/>
<path style="fill:#9a6757; stroke:none;" d="M45 350L45 351L48 351L45 350z"/>
<path style="fill:#69a07c; stroke:none;" d="M121 350L122 351L121 350z"/>
<path style="fill:#5d433d; stroke:none;" d="M122 350L122 351L125 351L122 350z"/>
<path style="fill:#d1a769; stroke:none;" d="M126 350L127 351L126 350M137 350L138 351L137 350M142 350L143 351L142 350M168 350L169 351L168 350z"/>
<path style="fill:#5d433d; stroke:none;" d="M184 350L184 351L187 351L184 350z"/>
<path style="fill:#9a6757; stroke:none;" d="M187 350L188 351L187 350M194 350L195 351L194 350M199 350L200 351L199 350M211 350L211 354L226 354C222.693 349.015 216.361 350 211 350z"/>
<path style="fill:#dac5a8; stroke:none;" d="M225 350L226 351L225 350z"/>
<path style="fill:#d1a769; stroke:none;" d="M229 350L230 354L231 354L232 350L229 350z"/>
<path style="fill:#69a07c; stroke:none;" d="M242 350L243 351L242 350z"/>
<path style="fill:#9a6757; stroke:none;" d="M243.667 350.333L244.333 350.667L243.667 350.333z"/>
<path style="fill:#69a07c; stroke:none;" d="M247 350L248 351L247 350z"/>
<path style="fill:#5d433d; stroke:none;" d="M255.667 350.333L256.333 350.667L255.667 350.333z"/>
<path style="fill:#d1a769; stroke:none;" d="M270 350L271 351L270 350z"/>
<path style="fill:#9a6757; stroke:none;" d="M289.667 350.333L290.333 350.667L289.667 350.333z"/>
<path style="fill:#d1a769; stroke:none;" d="M291.667 350.333L292.333 350.667L291.667 350.333M318.667 350.333L319.333 350.667L318.667 350.333M339 350L340 352L341 352L342 350L339 350z"/>
<path style="fill:#9a6757; stroke:none;" d="M342 350L343 351L342 350z"/>
<path style="fill:#69a07c; stroke:none;" d="M343 350L344 351L343 350z"/>
<path style="fill:#d1a769; stroke:none;" d="M376 350L377 351L376 350z"/>
<path style="fill:#69a07c; stroke:none;" d="M20 351L21 352L20 351z"/>
<path style="fill:#9a6757; stroke:none;" d="M82 351L82 352L87 352L82 351z"/>
<path style="fill:#d1a769; stroke:none;" d="M88 355L93 359L100 352C95.5628 350.269 91.6623 352.418 88 355z"/>
<path style="fill:#9a6757; stroke:none;" d="M98 352L98 353L102 354L102 353L101 351L98 352z"/>
<path style="fill:#d1a769; stroke:none;" d="M101 351L101 352L104 352L104 356L107 351L101 351z"/>
<path style="fill:#9a6757; stroke:none;" d="M104.667 351.333L105.333 351.667L104.667 351.333z"/>
<path style="fill:#d1a769; stroke:none;" d="M123 351L124 352L123 351M125 351L124 353L126 353L125 351M128 352L128 353L132 353L128 352M164 351L165 352L164 351M185 351L186 352L185 351z"/>
<path style="fill:#69a07c; stroke:none;" d="M240 351L241 352L240 351M245.667 351.333L246.333 351.667L245.667 351.333z"/>
<path style="fill:#d1a769; stroke:none;" d="M273 351L270 354L275 356L275 357L271 359L283 366L290 365L290 364L286 364L286 363L298 359C289.281 360.276 283.362 362.635 277 355L280 356L280 355L277 354L278 352L278 351L273 351z"/>
<path style="fill:#9a6757; stroke:none;" d="M275 351L276 352L275 351z"/>
<path style="fill:#d1a769; stroke:none;" d="M294 351C294 354.441 287.879 353 285 353L285 354L288 357L297 354L294 351M299 352L303 354L299 352z"/>
<path style="fill:#9a6757; stroke:none;" d="M305 352L305 353L311 351L305 352z"/>
<path style="fill:#d1a769; stroke:none;" d="M333 351L333 354L339 353L333 351z"/>
<path style="fill:#9a6757; stroke:none;" d="M337 351L337 352L340 352L337 351M354 351L355 352L354 351M357.667 351.333L358.333 351.667L357.667 351.333z"/>
<path style="fill:#d1a769; stroke:none;" d="M366 353C369.577 354.637 373.304 358.047 376 354L382 356C378.835 350.989 370.82 349.708 366 353M381 351L382 352L381 351z"/>
<path style="fill:#dac5a8; stroke:none;" d="M4 352L5 353L4 352z"/>
<path style="fill:#9a6757; stroke:none;" d="M6 354L10 353L6 354z"/>
<path style="fill:#d1a769; stroke:none;" d="M35 352L37 356L34 355C33.3087 360.29 26.6363 357.925 23 358.583C19.5387 359.21 10.8886 368.64 11 359L0 365C10.3717 369.056 12.2121 365.988 22 364L21 372L40 371L40 369L39 368L33 370L27 364L32 363L31 360L38 359L35 361L35 362C40.2453 364.384 44.0466 366.274 46 372L63 368L63 367C55.729 367.091 50.0628 367.812 47 360L57 358L56 356L69 357L69 356L44 356L44 357L49 357L49 358L43 360L44 357L35 352M70 352L71 356L71 357L69 361L72 356L75 358L75 355L81 361L78 357C77.1657 352.994 73.7372 352.511 70 352z"/>
<path style="fill:#9a6757; stroke:none;" d="M72 352L73 353L72 352z"/>
<path style="fill:#d1a769; stroke:none;" d="M79 352L80 353L79 352z"/>
<path style="fill:#dac5a8; stroke:none;" d="M96 352L97 353L96 352z"/>
<path style="fill:#5d433d; stroke:none;" d="M100 352L100 353L103 353L100 352z"/>
<path style="fill:#9a6757; stroke:none;" d="M103 352L104 353L103 352z"/>
<path style="fill:#d1a769; stroke:none;" d="M112 352L112 353L117 353L115 357L116 362L117 362L117 358L121 358L121 357L118 358L118 354L122 357L127 358L130 354L112 352M169.667 352.333L170.333 352.667L169.667 352.333M232 352C234.122 354.946 235.878 354.946 238 352L232 352z"/>
<path style="fill:#69a07c; stroke:none;" d="M233 352L234 353L233 352M251 352L251 353L258 353L251 352z"/>
<path style="fill:#9a6757; stroke:none;" d="M335.667 352.333L336.333 352.667L335.667 352.333z"/>
<path style="fill:#d1a769; stroke:none;" d="M361.667 352.333L362.333 352.667L361.667 352.333z"/>
<path style="fill:#9a6757; stroke:none;" d="M368 352L368 353L373 354L368 352z"/>
<path style="fill:#d1a769; stroke:none;" d="M27 356L31 354L27 356M33 353L34 354L33 353z"/>
<path style="fill:#9a6757; stroke:none;" d="M34 353L37 356L34 353M95 353L96 354L95 353z"/>
<path style="fill:#69a07c; stroke:none;" d="M99 353L100 354L99 353M102 353L103 354L102 353M306 353L307 354L306 353z"/>
<path style="fill:#d1a769; stroke:none;" d="M340.333 353.667L340.667 354.333L340.333 353.667z"/>
<path style="fill:#9a6757; stroke:none;" d="M378 353L379 354L378 353z"/>
<path style="fill:#d1a769; stroke:none;" d="M107 354C107.884 356.251 112.293 358.446 108 359L108 360L112 365L113 365C115.199 360.601 113.471 357.494 111 357L112 354L107 354z"/>
<path style="fill:#9a6757; stroke:none;" d="M118 354L118 358L123 356L118 354z"/>
<path style="fill:#d1a769; stroke:none;" d="M132 354L133 357L142 360L143 360L145 358L145 357L138 357L132 354M237 355L238 357L235 358L239 367L250 358L250 357L240 357L241 354L237 355z"/>
<path style="fill:#9a6757; stroke:none;" d="M274 354L275 355L274 354M290 354L290 355L293 355L290 354M322 354L326 357L322 354z"/>
<path style="fill:#69a07c; stroke:none;" d="M378 354L379 355L378 354z"/>
<path style="fill:#d1a769; stroke:none;" d="M16 355L16 357L19 357L19 355L16 355z"/>
<path style="fill:#9a6757; stroke:none;" d="M19 355L19 357L21 357L19 355z"/>
<path style="fill:#d1a769; stroke:none;" d="M20 355L20 358L25 357L20 355z"/>
<path style="fill:#69a07c; stroke:none;" d="M35 355L36 356L35 355z"/>
<path style="fill:#9a6757; stroke:none;" d="M75.3333 355.667L75.6667 356.333L75.3333 355.667z"/>
<path style="fill:#dac5a8; stroke:none;" d="M178 355L179 356L178 355z"/>
<path style="fill:#9a6757; stroke:none;" d="M373 355L374 356L373 355M37 356L42 359L42 358L37 356M56 356L56 357L67 357L56 356z"/>
<path style="fill:#69a07c; stroke:none;" d="M74 356L75 357L74 356z"/>
<path style="fill:#9a6757; stroke:none;" d="M90.6667 356.333L91.3333 356.667L90.6667 356.333M127 356L128 357L127 356z"/>
<path style="fill:#d1a769; stroke:none;" d="M148 356L151 358L148 356z"/>
<path style="fill:#69a07c; stroke:none;" d="M322.667 356.333L323.333 356.667L322.667 356.333z"/>
<path style="fill:#d1a769; stroke:none;" d="M355 356L354 358L356 358L355 356M0 357L3 359L0 357M58 357L58 358L61 358L58 357M64 357L65 358L64 357M98.6667 357.333L99.3333 357.667L98.6667 357.333z"/>
<path style="fill:#9a6757; stroke:none;" d="M188 357L169 360C172.06 361.998 188.689 361.178 188 357M262 357L263 358L262 357z"/>
<path style="fill:#69a07c; stroke:none;" d="M315 357L316 358L315 357z"/>
<path style="fill:#dac5a8; stroke:none;" d="M31 360L32 363L27 364L33 370L39 368L40 369L39 372L46 372C44.7358 365.756 40.6775 363.867 35 362L35 361L38 359L31 360z"/>
<path style="fill:#69a07c; stroke:none;" d="M50 358L51 359L50 358z"/>
<path style="fill:#d1a769; stroke:none;" d="M62 358L67 361L62 358z"/>
<path style="fill:#69a07c; stroke:none;" d="M117 358L118 359L117 358z"/>
<path style="fill:#d1a769; stroke:none;" d="M129 358L128 360L129 358z"/>
<path style="fill:#dac5a8; stroke:none;" d="M246 358L247 359L246 358z"/>
<path style="fill:#9a6757; stroke:none;" d="M273 358L273 359L280 360L273 358z"/>
<path style="fill:#d1a769; stroke:none;" d="M302 358L304 362L309 358L302 358z"/>
<path style="fill:#9a6757; stroke:none;" d="M326 358L327 359L326 358M23 359L22 360C23.9989 363.581 26.0822 363.86 29 361L23 359z"/>
<path style="fill:#dac5a8; stroke:none;" d="M40 359L40 361L42 361L42 359L40 359z"/>
<path style="fill:#9a6757; stroke:none;" d="M111 359L112 360L111 359z"/>
<path style="fill:#d1a769; stroke:none;" d="M126 359L127 360L126 359z"/>
<path style="fill:#9a6757; stroke:none;" d="M204.667 359.333L205.333 359.667L204.667 359.333z"/>
<path style="fill:#d1a769; stroke:none;" d="M267.667 359.333L268.333 359.667L267.667 359.333z"/>
<path style="fill:#9a6757; stroke:none;" d="M306 359L307 360L306 359M331 359L332 360L331 359z"/>
<path style="fill:#d1a769; stroke:none;" d="M364 359L364 361L367 361L367 359L364 359z"/>
<path style="fill:#9a6757; stroke:none;" d="M42 363L46 361L42 363z"/>
<path style="fill:#d1a769; stroke:none;" d="M102 360C94.6346 363.028 91.0334 366.729 102 365L102 360M138.667 360.333L139.333 360.667L138.667 360.333M147 360L149 362L149 360L147 360z"/>
<path style="fill:#9a6757; stroke:none;" d="M203 360L204 361L203 360M240 360L240 364L245 364L240 360z"/>
<path style="fill:#d1a769; stroke:none;" d="M251 360L251 362L253 362L251 360M257 365L257 366L254 366L252 370C255.481 371.395 258.507 372.23 261 369L262 369L263 372L271 367L272 367L271 371L282 372C277.769 361.209 269.269 367.798 261 365L261 363L266 360C263.754 360.198 249.504 363.391 257 365M144 361L144 363L146 361L144 361z"/>
<path style="fill:#9a6757; stroke:none;" d="M221 361L220 362L223 365L221 361M4 362L5 363L4 362z"/>
<path style="fill:#d1a769; stroke:none;" d="M74 368C76.9563 372.691 82.9777 371.997 88 372L85 367L89 362L74 368M120 362L120 369L116 368L117 371C121.761 369.133 125.622 365.493 120 362M129 362C131.829 370.075 138.476 369.278 145 366L145 365L135 363L137 367C135.024 366.792 129.405 364.613 134 364L134 363L129 362M228 364L228 365L236 362L228 364z"/>
<path style="fill:#9a6757; stroke:none;" d="M286 363L286 364L290 362L286 363z"/>
<path style="fill:#d1a769; stroke:none;" d="M332 362L324 365C327.138 369.841 335.172 368.623 338 364L332 362M378 362L378 363L382 363L378 362M74 363L75 364L74 363z"/>
<path style="fill:#9a6757; stroke:none;" d="M131 364L137 366L131 364M180 363L186 366L180 363z"/>
<path style="fill:#dac5a8; stroke:none;" d="M6 364L7 365L6 364M0 365L0 372C8.74515 372 21.8624 375.611 22 364L10.9853 367.975L0 365M45.3333 364.667L45.6667 365.333L45.3333 364.667z"/>
<path style="fill:#9a6757; stroke:none;" d="M87 364L88 365L87 364z"/>
<path style="fill:#69a07c; stroke:none;" d="M95 364L96 365L95 364z"/>
<path style="fill:#d1a769; stroke:none;" d="M103 367L107 365L103 367z"/>
<path style="fill:#69a07c; stroke:none;" d="M223 364L224 365L223 364z"/>
<path style="fill:#d1a769; stroke:none;" d="M343 366L344 372L355 372L355 371L352 368L362 368L362 364L343 366z"/>
<path style="fill:#9a6757; stroke:none;" d="M9 365L9 366L15 366L9 365z"/>
<path style="fill:#d1a769; stroke:none;" d="M147.667 365.333L148.333 365.667L147.667 365.333z"/>
<path style="fill:#9a6757; stroke:none;" d="M224.333 365.667L224.667 366.333L224.333 365.667z"/>
<path style="fill:#69a07c; stroke:none;" d="M136 366L137 367L136 366z"/>
<path style="fill:#d1a769; stroke:none;" d="M293 367L299 369L299 367L298 366L293 367z"/>
<path style="fill:#9a6757; stroke:none;" d="M349 366L349 367L352 367L349 366M27 367L28 370L29 370L30 367L27 367M46 367L47 370L49 370L50 367L46 367z"/>
<path style="fill:#d1a769; stroke:none;" d="M104 368L104 372L112 372L112 367L104 368M172 371L178 372L176 367L172 371z"/>
<path style="fill:#dac5a8; stroke:none;" d="M271 367L263 371L263 372L278 372L278 371L271 371L271 367z"/>
<path style="fill:#d1a769; stroke:none;" d="M338 368L341 371L338 368M375 371L375 372L382 372L382 368L375 371M150 372L158 372C155.687 368.431 152.427 368.638 150 372M247 369L248 370L247 369z"/>
<path style="fill:#dac5a8; stroke:none;" d="M261 369L258 371L258 372C260.348 371.706 261.951 371.507 261 369z"/>
<path style="fill:#d1a769; stroke:none;" d="M93 371L93 372L97 372L93 371z"/>
<path style="fill:#9a6757; stroke:none;" d="M107.667 370.333L108.333 370.667L107.667 370.333z"/>
<path style="fill:#d1a769; stroke:none;" d="M124 371L124 372L130 372L130 370L124 371M321 371L321 372L326 372L321 371z"/>
<path style="fill:#dac5a8; stroke:none;" d="M25 371L25 372L33 372L25 371z"/>
<path style="fill:#9a6757; stroke:none;" d="M156 371L157 372L156 371z"/>
<path style="fill:#dac5a8; stroke:none;" d="M233.667 371.333L234.333 371.667L233.667 371.333z"/>
<path style="fill:#d1a769; stroke:none;" d="M331.667 371.333L332.333 371.667L331.667 371.333z"/>
</svg>
